<svg width="48" height="48" viewBox="0 0 48 48" fill="none" xmlns="http://www.w3.org/2000/svg">
<path d="M43.8744 6.13983C43.6794 6.00032 43.4307 5.96334 43.2038 6.03898L35.6013 8.6157L28.0006 6.03898C27.8443 5.98687 27.6779 5.99192 27.5249 6.04234V6.03898L19.9293 8.61234L12.8361 6.04402C12.6765 5.98519 12.5033 5.98856 12.3453 6.04234V6.03898L4.50425 8.69638C4.2017 8.79891 4 9.08129 4 9.40065V41.4558C4 41.6945 4.11598 41.9197 4.31095 42.0592C4.4387 42.1517 4.58997 42.1987 4.74461 42.1987C4.82529 42.1987 4.90597 42.1853 4.98329 42.1601L12.5773 39.5867L19.6704 42.155V42.1517C19.7528 42.1803 19.8368 42.2004 19.9225 42.2004C20.0032 42.2004 20.0839 42.187 20.1612 42.1618L27.7636 39.585L35.366 42.1618C35.4433 42.1887 35.524 42.2004 35.6047 42.2004C35.6854 42.2004 35.7661 42.1853 35.8417 42.1601L43.6811 39.5044C43.9837 39.4018 44.1854 39.1195 44.1854 38.8001V6.74325C44.1854 6.50457 44.0694 6.27934 43.8744 6.13983ZM19.1779 40.3969L13.3253 38.2774V25.4829C13.0177 25.5282 12.7034 25.5602 12.3823 25.5602C12.1991 25.5602 12.0176 25.5484 11.8394 25.5333V38.2673L5.48586 40.4204V9.93347L11.8394 7.78032V12.8043C12.0193 12.7892 12.1991 12.7774 12.3823 12.7774C12.7034 12.7774 13.016 12.8094 13.3253 12.8548V7.80217L19.1779 9.92171V40.3969ZM27.0173 38.2656L20.6638 40.4187V9.93347L27.0173 7.78032V38.2656ZM34.8567 40.4187L28.5032 38.2656V7.78032L34.8567 9.93347V40.4187ZM42.6961 38.2656L36.3426 40.4187V9.93347L42.6961 7.78032V38.2656Z" fill="#1D1D1B"/>
<path d="M12.3842 24.699C15.4392 24.699 17.9158 22.2224 17.9158 19.1674C17.9158 16.1123 15.4392 13.6357 12.3842 13.6357C9.32913 13.6357 6.85254 16.1123 6.85254 19.1674C6.85254 22.2224 9.32913 24.699 12.3842 24.699Z" fill="#FADA00"/>
</svg>
