<svg width="34" height="34" viewBox="0 0 34 34" fill="none" xmlns="http://www.w3.org/2000/svg">
<path fill-rule="evenodd" clip-rule="evenodd" d="M29.7 15.7447C29.1094 9.69984 24.3009 4.89082 18.2557 4.30071V1.54285C18.2557 -0.108359 15.7448 -0.108359 15.7448 1.54285V4.30071C9.70003 4.89082 4.89103 9.69984 4.30051 15.7447H1.54309C-0.108112 15.7447 -0.108112 18.2555 1.54309 18.2555H4.30093C4.89103 24.3004 9.70003 29.1094 15.7448 29.6999V32.4573C15.7448 34.1086 18.2557 34.1086 18.2557 32.4573V29.6995C24.3009 29.1094 29.1094 24.3004 29.7 18.2555H32.4582C34.1086 18.2555 34.1086 15.7447 32.4582 15.7447H29.7ZM25.5784 16.9708C25.5784 12.2172 21.7244 8.36316 16.9709 8.36316C12.2173 8.36316 8.36328 12.2172 8.36328 16.9708C8.36328 21.7244 12.2173 25.5784 16.9709 25.5784C21.7244 25.5784 25.5784 21.7244 25.5784 16.9708ZM16.9982 10.274C13.2848 10.274 10.2741 13.2847 10.2741 16.9988C10.2741 20.7122 13.2848 23.7237 16.9982 23.7237C20.7123 23.7237 23.723 20.713 23.723 16.9988C23.723 13.2847 20.7123 10.274 16.9982 10.274ZM6.12024 16.9973C6.12024 10.9892 10.9903 6.12002 16.9974 6.12002C23.0054 6.12002 27.8754 10.9892 27.8754 16.9973C27.8754 23.0053 23.0054 27.8745 16.9974 27.8745C10.9903 27.8745 6.12024 23.0053 6.12024 16.9973Z" fill="white"/>
</svg>
