<svg width="24" height="24" viewBox="0 0 24 24" fill="none" xmlns="http://www.w3.org/2000/svg">
<path d="M11.7836 16.8697C11.3688 16.8697 11.0335 16.5396 11.0335 16.1248C11.0335 14.2892 12.1427 12.7627 13.6115 11.4027C14.1989 10.8596 14.4494 10.0577 14.2836 9.25806C14.1073 8.4134 13.4217 7.72777 12.5778 7.55148C11.8862 7.40971 11.2035 7.56649 10.6664 8.00382C10.1368 8.4329 9.83378 9.06977 9.83378 9.75015C9.83378 10.165 9.49847 10.5003 9.08364 10.5003C8.66881 10.5003 8.3335 10.165 8.3335 9.75015C8.3335 8.61594 8.83909 7.55449 9.71976 6.83885C10.6004 6.12246 11.7564 5.84566 12.8839 6.0827C14.3039 6.37901 15.4561 7.53198 15.7517 8.95125C16.027 10.2723 15.6084 11.6 14.6309 12.5032C13.4727 13.5759 12.5338 14.7115 12.5338 16.1135C12.5338 16.5283 12.1985 16.8697 11.7836 16.8697Z" fill="black"/>
<path d="M11.7836 19.4998C12.1979 19.4998 12.5338 19.1639 12.5338 18.7496C12.5338 18.3353 12.1979 17.9995 11.7836 17.9995C11.3693 17.9995 11.0335 18.3353 11.0335 18.7496C11.0335 19.1639 11.3693 19.4998 11.7836 19.4998Z" fill="black"/>
<path fill-rule="evenodd" clip-rule="evenodd" d="M12.0172 0.0341797C5.4096 0.0341797 0.0344238 5.40935 0.0344238 12.017C0.0344238 18.6246 5.4096 23.9998 12.0172 23.9998C18.6248 23.9998 24 18.6246 24 12.017C24 5.40935 18.6248 0.0341797 12.0172 0.0341797ZM12.0172 21.8165C6.61475 21.8165 2.21768 17.4205 2.21768 12.017C2.21768 6.61342 6.61475 2.21743 12.0172 2.21743C17.4197 2.21743 21.8167 6.61342 21.8167 12.017C21.8167 17.4205 17.4197 21.8165 12.0172 21.8165Z" fill="black"/>
</svg>
