<svg width="24" height="28" viewBox="0 0 24 28" fill="none" xmlns="http://www.w3.org/2000/svg">
<path fill-rule="evenodd" clip-rule="evenodd" d="M-0.000109146 25.8939C0.363812 20.4107 4.11978 14 11.9997 14C20.1198 14 23.6654 20.4441 23.9965 25.8939C24.0295 26.4622 23.8311 26.9972 23.4671 27.3983C23.1032 27.7659 22.607 28 22.0776 28H1.9188C1.3894 28 0.89321 27.7995 0.529283 27.3983C0.165356 26.9972 -0.0331096 26.4288 -0.000109146 25.8939ZM11.9997 12C15.275 12 17.8351 9.32808 17.8351 6.01808C17.8351 2.70807 15.275 0 11.9997 0C8.72434 0 5.92494 2.70807 5.92494 6.01808C5.92494 9.32808 8.72434 12 11.9997 12Z" fill="black"/>
</svg>
