<svg width="28" height="28" viewBox="0 0 28 28" fill="none" xmlns="http://www.w3.org/2000/svg">
<path d="M13.0887 27.9989V2.83867C12.8976 2.74104 12.6967 2.66452 12.4888 2.61248L2.30358 0.0616631C1.72147 -0.0840623 1.13546 0.0312664 0.694838 0.378325C0.25333 0.726278 0 1.27306 0 1.87867V22.7652C0 23.8616 0.826385 24.9274 1.88107 25.1919L13.0887 27.9989Z" fill="black"/>
<path d="M14.9065 28V2.84117C15.099 2.74247 15.3015 2.66505 15.5112 2.61248L25.6962 0.0616631C26.278 -0.0840623 26.8642 0.031624 27.3052 0.378325C27.7465 0.725921 28 1.27306 28 1.87867V22.7652C28 23.8619 27.1736 24.9278 26.1188 25.1919L14.9065 28Z" fill="black"/>
</svg>
