<svg width="52" height="52" viewBox="0 0 52 52" fill="none" xmlns="http://www.w3.org/2000/svg">
<g clip-path="url(#clip0_2243_6735)">
<circle cx="26" cy="26" r="26" fill="#FADA00"/>
<path fill-rule="evenodd" clip-rule="evenodd" d="M8.16455 42.0595C11.167 35.973 16.9836 31 25.9994 31C35.2428 31 40.9735 35.9483 43.896 41.992C43.0986 42.8837 42.2355 43.7155 41.3143 44.4798C40.609 42.7802 39.6658 41.1726 38.476 39.7689C35.8319 36.6492 31.8483 34.375 25.9994 34.375C20.3729 34.375 16.3848 36.6207 13.6763 39.7673C12.4543 41.187 11.4772 42.8118 10.7431 44.5273C9.8237 43.7693 8.96168 42.9442 8.16455 42.0595ZM32.4716 17.5305C32.4716 21.3493 29.5669 24.25 25.9994 24.25C22.2557 24.25 19.1233 21.1727 19.1233 17.5305C19.1233 13.8621 22.2825 10.75 25.9994 10.75C29.5409 10.75 32.4716 13.6847 32.4716 17.5305ZM35.8466 17.5305C35.8466 23.1161 31.5265 27.625 25.9994 27.625C20.4722 27.625 15.7483 23.1161 15.7483 17.5305C15.7483 11.9449 20.4722 7.375 25.9994 7.375C31.5265 7.375 35.8466 11.9449 35.8466 17.5305Z" fill="white"/>
<circle cx="41.5" cy="41.5" r="10.5" fill="black"/>
<path d="M45.9972 36.8655L45.8864 36.4425C45.7391 36.1633 45.5744 35.8965 45.3309 35.6927C44.7929 35.2425 44.2024 34.9392 43.4809 35.0128L43.4764 35.0137C43.4698 35.0153 43.4639 35.0167 43.4528 35L43.01 35.1214C42.3298 35.4528 41.9528 36.0435 41.597 36.6807C41.5082 36.8389 41.4193 36.9971 41.3305 37.1554L45.0714 39.3663C45.2448 39.0625 45.4181 38.7587 45.5914 38.455C45.6527 38.3476 45.7062 38.2353 45.7596 38.1234L45.7602 38.122C45.9492 37.725 46.0151 37.3034 45.9972 36.8655Z" fill="white"/>
<path d="M44.3704 40.5946L40.6375 38.3885C39.5219 40.3721 38.4034 42.3537 37.282 44.3334C37.1649 44.5333 37.0071 44.767 37.004 45C36.9895 45.7103 37.0248 46.2899 37.004 47C36.9907 47.455 37.0159 48.0348 37.0042 48.4904C37.0023 48.5857 37.0117 48.6935 37.0523 48.7765C37.1709 49.02 37.4284 49.0681 37.6778 48.9032C38.6793 48.2472 39.6399 47.662 40.6375 47C40.7175 46.9456 40.8235 46.7996 40.8726 46.7151C42.0395 44.6755 43.2054 42.6353 44.3704 40.5946Z" fill="white"/>
</g>
<defs>
<clipPath id="clip0_2243_6735">
<rect width="52" height="52" fill="white"/>
</clipPath>
</defs>
</svg>
