<svg width="29" height="28" viewBox="0 0 29 28" fill="none" xmlns="http://www.w3.org/2000/svg">
<path d="M14.6673 28C14.5975 28 14.5262 27.9916 14.4553 27.9738L2.54788 25.0128C1.49315 24.7503 0.666748 23.6919 0.666748 22.6033V1.86535C0.666748 1.26398 0.92016 0.721141 1.36154 0.375733C1.80219 0.0310523 2.38828 -0.0834776 2.97036 0.0612302L13.1555 2.59398C13.7336 2.7376 14.2575 3.06991 14.6666 3.51276C15.0752 3.07028 15.5995 2.73796 16.1779 2.59398L26.3631 0.0612302C26.9449 -0.0834776 27.5309 0.0314159 27.972 0.375733C28.4133 0.720777 28.6667 1.26398 28.6667 1.86535V22.6033C28.6667 23.6922 27.8403 24.7506 26.7856 25.0128L14.8956 27.9695C14.8218 27.9895 14.7451 28 14.6673 28ZM2.4759 1.74973C2.45445 1.74973 2.44208 1.75336 2.43881 1.75518C2.43518 1.75918 2.417 1.79263 2.417 1.86571V22.6036C2.417 22.8931 2.69113 23.2454 2.97036 23.3148L13.7554 26.0094L13.7409 5.65175C13.7409 5.07837 13.2872 4.43046 12.7334 4.29266L2.54825 1.75991C2.51771 1.75191 2.49371 1.74973 2.4759 1.74973ZM26.858 1.74973C26.8401 1.74973 26.8162 1.75191 26.7849 1.75991L16.6001 4.29229C16.0456 4.43009 15.573 5.07728 15.5733 5.65029L15.5879 26.0017L26.3628 23.3145C26.642 23.245 26.9161 22.8927 26.9161 22.6033V1.86535C26.9161 1.79263 26.898 1.75918 26.8929 1.75409C26.8907 1.75264 26.879 1.74973 26.858 1.74973Z" fill="#595959"/>
</svg>
