<svg width="28" height="28" viewBox="0 0 28 28" fill="none" xmlns="http://www.w3.org/2000/svg">
<path d="M10 14C12.2091 14 14 12.2091 14 10C14 7.79086 12.2091 6 10 6C7.79086 6 6 7.79086 6 10C6 12.2091 7.79086 14 10 14Z" fill="#595959"/>
<path fill-rule="evenodd" clip-rule="evenodd" d="M18.9189 2.88717L25.7297 0.109075C26.2635 -0.106084 26.8168 0.000533849 27.2732 0.398268C27.7296 0.796504 28 1.4355 28 2.11609V23.0595C28 23.5042 27.8842 23.9373 27.6698 24.298C27.455 24.6584 27.1521 24.9283 26.8034 25.0686L18.9189 27.8902C18.5598 28.0352 17.7648 28.0352 17.4054 27.8902L10.5946 25.1121C10.235 24.9671 9.43074 25.0171 9.07156 25.1621L2.30352 27.8912C1.76978 28.1067 1.18323 27.9982 0.726805 27.6002C0.270359 27.2025 0 26.5635 0 25.8829V4.93951C0 4.49504 0.115545 4.06173 0.330392 3.70131C0.545238 3.34086 0.848087 3.07097 1.19678 2.93069L9.08108 0.109061C9.44025 -0.0359512 10.2352 -0.0359932 10.5946 0.109019L17.4054 2.88717C17.765 3.03218 18.5597 3.03218 18.9189 2.88717ZM1.51351 4.73924V26.0381L9.08108 23.26V15.9232C9.32718 15.9737 9.58 16 9.83784 16C10.0957 16 10.3485 15.9737 10.5946 15.9232V23.26L17.4054 26.0381V4.73924L10.5946 1.96113V4.07682C10.3485 4.0263 10.0957 4 9.83784 4C9.58 4 9.32718 4.0263 9.08108 4.07682V1.96113L1.51351 4.73924ZM18.9189 26.0381L26.4865 23.26V1.96114L18.9189 4.73924V26.0381Z" fill="#595959"/>
</svg>
