<svg width="24" height="18" viewBox="0 0 24 18" fill="none" xmlns="http://www.w3.org/2000/svg">
<path fill-rule="evenodd" clip-rule="evenodd" d="M23.042 1.73947V14.6393C23.042 14.6393 19.3721 13.6075 16.6455 14.1318C14.2033 14.6011 12.406 15.9261 12.1028 16.1603V16.1993C12.1028 16.1993 12.0938 16.1921 12.0774 16.1794C12.0614 16.1921 12.0524 16.1993 12.0524 16.1993V16.1603C11.7494 15.9261 9.95215 14.6015 7.51058 14.1318C4.78318 13.6072 0.75415 14.6393 0.75415 14.6393V1.7013C0.518537 1.73665 0.268552 1.77438 0 1.81451V15.7114C0 15.7114 4.39107 14.5814 7.37798 15.1563C10.3152 15.7212 12.0899 17.4207 12.0899 17.4207C12.0899 17.4207 13.8645 15.7214 16.8016 15.1563C19.789 14.5812 24 15.7114 24 15.7114L23.9998 1.87435C24.0002 1.87435 23.6337 1.81232 23.0423 1.73943L23.042 1.73947ZM7.28889 12.826C9.67744 13.2849 11.5233 14.6675 11.5233 14.6675V1.97593C11.5233 1.97593 9.66763 0.591897 7.27357 0.131698C4.85025 -0.334373 1.68483 0.586355 1.68483 0.586355V13.2779C1.68483 13.2779 4.86047 12.359 7.28912 12.826L7.28889 12.826ZM22.1099 13.3243V0.632752C22.1099 0.632752 19.2082 -0.288164 16.786 0.178095C14.3919 0.638091 12.4753 2.02195 12.4753 2.02195V14.7135C12.4753 14.7135 14.3814 13.3315 16.7703 12.8718C19.1986 12.4056 22.1098 13.3241 22.1098 13.3241L22.1099 13.3243Z" fill="black"/>
</svg>
