<svg width="304" height="200" viewBox="0 0 304 200" fill="none" xmlns="http://www.w3.org/2000/svg">
<path d="M191.118 52.8455C193.296 51.9121 195.158 51.8456 196.668 52.589C198.148 53.3174 199.025 54.696 199.539 56.0785C200.057 57.4708 200.263 59.0123 200.31 60.3172C200.356 61.6034 200.251 62.7856 200.066 63.4664C199.827 64.347 199.156 66.9671 198.201 70.3515C198.226 70.3069 198.252 70.2626 198.278 70.2181C199.718 67.7267 201.216 65.379 202.657 63.5274C203.377 62.6017 204.098 61.7808 204.804 61.1223C205.5 60.473 206.236 59.9291 206.993 59.6264C208.62 58.9756 210.079 58.9464 211.299 59.5502C212.489 60.1389 213.227 61.2202 213.676 62.3236C214.562 64.4976 214.552 67.289 214.236 68.8683C213.722 71.4392 210.204 83.3863 202.938 95.8383C204.039 95.0865 205.2 94.3603 206.372 93.7202C208.085 92.7849 209.869 92.0059 211.561 91.6161C213.237 91.2297 214.965 91.1928 216.442 91.931C218.079 92.7497 219.18 93.9242 219.667 95.4192C220.144 96.8823 219.975 98.4841 219.431 100.078C218.352 103.238 215.649 106.789 212.217 110.22C208.783 113.655 202.452 119.442 198.665 128.116C194.909 136.721 193.629 148.258 200.565 163.241C202.254 166.889 205.413 173.751 211.712 181.083C212.385 181.82 212.515 183.094 212.051 184.43C211.554 185.858 210.342 187.558 207.976 189.45C207.959 189.464 207.942 189.476 207.925 189.489C207.107 190.073 205.772 190.638 204.452 190.884C203.215 191.114 201.494 191.152 200.373 190.032C198.631 188.289 171.889 160.671 165.892 114.542C165.309 115.392 164.744 116.181 164.214 116.888C154.402 130.946 128.636 168.604 88.5264 189.115L88.5251 189.114C87.3278 189.76 85.3559 190.41 83.1626 190.347C80.9143 190.283 78.421 189.466 76.3639 187.152C74.1181 184.625 72.2547 182.355 71.3697 180.465C70.925 179.515 70.646 178.497 70.8389 177.51C71.046 176.451 71.7439 175.674 72.7284 175.152L72.7601 175.136C83.9806 169.617 104.813 150.702 98.1695 119.258C96.0376 109.167 95.4345 102.133 95.8229 97.3875C96.2039 92.7312 97.5844 89.8576 99.9028 88.8275C102.214 87.8011 104.749 88.9184 106.653 90.4377C108.602 91.9927 110.302 94.272 111.142 96.4732C111.755 97.7198 112.757 100.454 113.797 103.575C114.27 104.995 114.754 106.513 115.225 108.036C115.979 102.053 117.098 94.7657 118.533 88.0225C119.502 83.4631 120.622 79.1216 121.881 75.5908C122.51 73.8256 123.183 72.2405 123.9 70.9216C124.61 69.6157 125.4 68.5011 126.294 67.7445C131.559 63.2896 136.51 65.0634 137.986 67.2594C138.465 67.8065 138.814 68.6846 139.056 69.8676C139.325 71.1872 139.497 73.0639 139.477 75.7C139.459 78.0644 139.284 81.0669 138.873 84.8669C140.386 80.6961 142.211 76.4531 144.291 73.0905C145.331 71.4086 146.457 69.9133 147.665 68.7515C148.87 67.5931 150.212 66.714 151.688 66.3667C153.902 65.8457 155.73 66.24 157.1 67.4219C158.407 68.5494 159.13 70.2527 159.523 72.0213C160.309 75.5644 159.91 80.021 159.331 83.0117C158.848 85.7764 157.582 91.0805 155.467 96.8046C156.896 95.1761 158.477 93.5624 160.121 92.2154C161.808 90.8329 163.634 89.67 165.486 89.1005C165.428 85.4679 165.54 80.2545 166.061 75.3457C166.345 72.6725 166.753 70.0602 167.328 67.8308C167.894 65.6405 168.66 63.6647 169.748 62.3972C170.936 61.013 172.297 59.9693 173.791 59.8537C175.423 59.7276 176.715 60.7213 177.648 62.2499C178.574 63.7658 179.295 66.0147 179.826 68.9838C180.002 69.9665 180.156 71.0379 180.292 72.2003C180.653 70.8419 181.07 69.3945 181.543 67.9261C182.547 64.8108 183.815 61.5594 185.359 58.8518C186.879 56.1847 188.774 53.85 191.118 52.8455ZM195.634 54.6893C194.934 54.3445 193.824 54.232 192.039 54.9966C190.421 55.6904 188.846 57.4603 187.392 60.0112C185.961 62.5217 184.75 65.6033 183.77 68.6435C182.793 71.6764 182.058 74.6283 181.57 76.8581C181.325 77.9719 181.143 78.9019 181.024 79.5666C180.964 79.8994 180.921 80.1622 180.893 80.3463C180.879 80.4389 180.869 80.506 180.864 80.5495L180.861 80.4873V80.4898C180.881 81.1353 180.374 81.6746 179.728 81.6949C179.083 81.715 178.543 81.2087 178.522 80.5635V80.5609L178.46 78.867C178.292 75.0169 177.968 71.8813 177.523 69.3953C177.011 66.5336 176.353 64.619 175.651 63.469C174.957 62.3316 174.372 62.1567 173.971 62.1877C173.431 62.2296 172.598 62.669 171.523 63.9223C170.8 64.7652 170.14 66.3012 169.594 68.4162C169.058 70.4929 168.666 72.9811 168.389 75.5933C167.895 80.2387 167.775 85.1857 167.82 88.7259C169.003 88.7231 170.171 89.0246 171.268 89.7291C172.867 90.7571 173.685 92.3161 173.948 94.0821C174.205 95.8095 173.94 97.7614 173.394 99.7405C172.336 103.579 170.122 107.849 167.881 111.479C173.043 158.529 200.417 186.765 202.029 188.377C202.268 188.615 202.909 188.79 204.023 188.583C205.046 188.393 206.043 187.95 206.55 187.593C208.685 185.877 209.539 184.526 209.84 183.661C210.161 182.739 209.838 182.515 209.996 182.673C209.975 182.653 209.956 182.631 209.936 182.609C203.417 175.02 200.149 167.912 198.442 164.224C191.228 148.641 192.494 136.406 196.521 127.18C200.517 118.025 207.204 111.924 210.562 108.566C213.923 105.205 216.314 101.963 217.216 99.3214C217.663 98.0149 217.708 96.963 217.441 96.1443C217.185 95.3576 216.588 94.6213 215.395 94.025C214.608 93.6311 213.505 93.5697 212.086 93.8967C210.682 94.2204 209.106 94.8928 207.493 95.7735C204.271 97.5333 201.091 100.02 199.157 101.77C198.717 102.167 198.05 102.174 197.603 101.785C197.156 101.396 197.07 100.734 197.403 100.245C206.927 86.2392 211.401 71.1058 211.94 68.4086C212.19 67.1578 212.181 64.8541 211.51 63.2074C211.181 62.401 210.752 61.8908 210.262 61.648C209.802 61.4205 209.066 61.3193 207.863 61.8004C207.487 61.9506 206.997 62.2783 206.401 62.834C205.815 63.3805 205.178 64.0989 204.504 64.9648C203.156 66.6969 201.719 68.9418 200.305 71.3889C197.479 76.2792 194.809 81.8695 193.218 85.5209C192.962 86.1069 192.284 86.3792 191.694 86.1329C191.104 85.8865 190.821 85.2128 191.058 84.6193C194.422 76.2093 197.231 64.9771 197.808 62.8531C197.906 62.4927 198.013 61.574 197.971 60.4023C197.929 59.2494 197.747 57.9749 197.345 56.8938C196.939 55.8026 196.366 55.0493 195.634 54.6893ZM136.063 68.5902C135.573 67.8084 132.289 65.7381 127.806 69.5311C127.229 70.0198 126.603 70.8487 125.956 72.0391C125.316 73.2163 124.69 74.6807 124.086 76.3768C122.876 79.7692 121.782 83.9975 120.822 88.5088C118.904 97.527 117.551 107.56 116.893 114.04C116.836 114.601 116.387 115.041 115.825 115.088C115.264 115.134 114.748 114.773 114.6 114.229C113.758 111.141 112.632 107.483 111.576 104.316C110.51 101.117 109.545 98.5085 109.023 97.4637C109.005 97.4273 108.988 97.39 108.973 97.3519C108.299 95.5573 106.853 93.5908 105.193 92.2662C103.472 90.893 101.915 90.4955 100.853 90.9672C99.7979 91.4359 98.5241 93.0749 98.1556 97.5792C97.7944 101.994 98.3457 108.771 100.459 118.774C107.395 151.603 85.6287 171.397 73.823 177.219C73.3018 177.496 73.176 177.755 73.136 177.96C73.0819 178.237 73.1328 178.711 73.489 179.472C74.2063 181.004 75.8316 183.029 78.1138 185.596C79.6794 187.358 81.5255 187.958 83.2299 188.007C84.9723 188.056 86.5521 187.526 87.4331 187.045L87.461 187.031C127.018 166.803 152.5 129.581 162.318 115.516L162.341 115.484C163.359 114.126 164.524 112.444 165.68 110.594C167.95 106.961 170.134 102.759 171.138 99.1183C171.641 97.2952 171.823 95.7004 171.633 94.4262C171.449 93.1908 170.927 92.293 170.003 91.6986C169.063 91.0944 168.034 90.942 166.89 91.1577C165.277 91.462 163.469 92.4975 161.604 94.0262C159.758 95.5392 157.954 97.4523 156.351 99.3671C154.751 101.278 153.372 103.166 152.372 104.612C151.873 105.334 151.469 105.944 151.183 106.388C151.039 106.61 150.925 106.79 150.843 106.921C150.803 106.987 150.771 107.04 150.747 107.079C150.74 107.09 150.733 107.1 150.728 107.108C150.72 107.122 150.713 107.136 150.705 107.15C150.382 107.708 149.668 107.899 149.109 107.578C148.585 107.277 148.382 106.632 148.621 106.091L148.678 105.977C153.566 97.5347 156.288 86.8514 157.029 82.5888L157.034 82.5673C157.587 79.7091 157.924 75.6181 157.238 72.5292C156.895 70.982 156.33 69.8476 155.571 69.1934C154.875 68.5936 153.858 68.2615 152.224 68.6461C151.294 68.8649 150.311 69.454 149.288 70.4378C148.268 71.4185 147.26 72.7407 146.282 74.3222C144.325 77.4865 142.565 81.5573 141.075 85.6644C138.096 93.8754 136.272 102.019 136.126 102.812L136.125 102.811V102.815C136.006 103.45 135.396 103.87 134.761 103.752C134.126 103.634 133.707 103.024 133.824 102.389V102.387C136.308 89.0604 137.099 80.761 137.137 75.6822C137.156 73.1418 136.988 71.4402 136.762 70.3349C136.65 69.7835 136.527 69.4006 136.418 69.1451C136.306 68.8821 136.228 68.7972 136.228 68.7972C136.165 68.7346 136.109 68.6652 136.063 68.5902Z" fill="black"/>
<path d="M72.1163 138.19C72.7244 137.971 73.3946 138.287 73.6135 138.895C73.8322 139.503 73.5168 140.173 72.9087 140.392L44.6067 150.581C43.9987 150.8 43.3285 150.484 43.1095 149.877C42.8906 149.268 43.2062 148.597 43.8143 148.378L72.1163 138.19ZM261.004 93.4032C261.65 93.4034 262.174 93.9278 262.174 94.574C262.174 95.2202 261.65 95.7446 261.004 95.7448H236.664C236.018 95.7448 235.493 95.2203 235.493 94.574C235.493 93.9277 236.018 93.4033 236.664 93.4032H261.004ZM255.235 59.6548C255.764 59.2826 256.493 59.4097 256.866 59.938C257.238 60.4663 257.112 61.1962 256.584 61.5685L231.677 79.1151C231.149 79.4873 230.419 79.3614 230.047 78.8331C229.675 78.3048 229.802 77.5749 230.33 77.2027L255.235 59.6548ZM83.329 38.0626C83.5906 37.4716 84.2821 37.2042 84.8731 37.4658L119.401 52.7495C119.992 53.011 120.259 53.7014 119.998 54.2923C119.736 54.8834 119.045 55.1508 118.454 54.8892L83.9258 39.6067C83.3349 39.3452 83.0676 38.6536 83.329 38.0626ZM113.209 16.0361C113.756 15.6917 114.479 15.8564 114.823 16.403L131.239 42.4397C131.583 42.9865 131.42 43.7103 130.873 44.0549C130.326 44.3995 129.604 44.2347 129.259 43.688L112.844 17.65C112.499 17.1033 112.663 16.3807 113.209 16.0361Z" fill="black"/>
<path d="M218.452 144.689C218.889 144.689 219.243 145.043 219.243 145.478C219.243 148.35 219.929 150.235 220.853 151.384C221.767 152.52 222.964 153.004 224.163 153.004C224.599 153.004 224.954 153.357 224.954 153.792C224.953 154.226 224.599 154.58 224.163 154.58C222.88 154.58 221.98 154.91 221.332 155.389C220.677 155.873 220.219 156.555 219.9 157.349C219.251 158.969 219.243 160.898 219.243 162.105C219.243 162.54 218.889 162.893 218.452 162.893C218.043 162.893 217.706 162.583 217.665 162.186L217.661 162.105L217.652 161.588C217.464 156.361 214.42 154.58 212.741 154.58C212.305 154.579 211.951 154.226 211.95 153.792C211.95 153.357 212.305 153.004 212.741 153.004C214.024 153.004 214.924 152.673 215.572 152.194C216.227 151.71 216.685 151.028 217.004 150.234C217.653 148.614 217.661 146.685 217.661 145.478C217.661 145.043 218.015 144.689 218.452 144.689Z" fill="#FADA00"/>
<path d="M245.759 112.181C246.37 112.181 246.866 112.687 246.866 113.308C246.866 117.411 247.826 120.104 249.121 121.746C250.4 123.368 252.075 124.059 253.753 124.059C254.365 124.059 254.861 124.564 254.861 125.185C254.86 125.806 254.364 126.311 253.753 126.311C251.958 126.311 250.698 126.782 249.791 127.467C248.874 128.159 248.232 129.133 247.786 130.268C246.878 132.582 246.866 135.338 246.866 137.062C246.866 137.683 246.37 138.187 245.759 138.187C245.186 138.187 244.714 137.744 244.657 137.177L244.651 137.062L244.639 136.323C244.375 128.856 240.114 126.311 237.764 126.311C237.153 126.31 236.657 125.806 236.656 125.185C236.656 124.564 237.153 124.06 237.764 124.059C239.559 124.059 240.819 123.588 241.726 122.903C242.643 122.211 243.285 121.237 243.731 120.102C244.64 117.788 244.651 115.032 244.651 113.308C244.651 112.687 245.147 112.182 245.759 112.181Z" fill="#FADA00"/>
<path d="M163.839 6.8562C164.625 6.8562 165.263 7.51331 165.263 8.32115C165.263 13.6554 166.497 17.1554 168.162 19.29C169.806 21.3995 171.96 22.2975 174.118 22.2977C174.904 22.2977 175.542 22.9532 175.542 23.761C175.541 24.5685 174.904 25.2244 174.118 25.2244C171.809 25.2245 170.19 25.8374 169.023 26.7274C167.845 27.627 167.019 28.8928 166.446 30.3684C165.278 33.3769 165.263 36.9596 165.263 39.2009C165.262 40.0084 164.625 40.6643 163.839 40.6643C163.102 40.664 162.496 40.0873 162.423 39.3501L162.415 39.2009L162.4 38.2407C162.06 28.5337 156.582 25.2244 153.56 25.2244C152.775 25.2241 152.137 24.5683 152.136 23.761C152.136 22.9534 152.774 22.298 153.56 22.2977C155.868 22.2977 157.488 21.6844 158.655 20.7946C159.834 19.8952 160.659 18.6292 161.232 17.1537C162.401 14.1453 162.415 10.5627 162.415 8.32115C162.415 7.51351 163.053 6.85652 163.839 6.8562Z" fill="#FADA00"/>
<path d="M67.5018 74.7372C68.1482 74.7372 68.6726 75.2629 68.6726 75.9092C68.6727 80.177 69.6878 82.9772 71.0561 84.6851C72.4085 86.3728 74.1797 87.0913 75.9538 87.0914C76.6002 87.0914 77.1246 87.6159 77.1246 88.2622C77.1243 88.9082 76.6 89.433 75.9538 89.433C74.0557 89.4331 72.7238 89.9235 71.7647 90.6355C70.7955 91.3552 70.1166 92.368 69.6453 93.5485C68.6848 95.9555 68.6726 98.8219 68.6726 100.615C68.6723 101.261 68.1479 101.786 67.5018 101.786C66.8962 101.786 66.3974 101.324 66.3374 100.734L66.331 100.615L66.3183 99.8469C66.0391 92.0806 61.5347 89.433 59.0498 89.433C58.4039 89.4327 57.8794 88.9081 57.879 88.2622C57.879 87.616 58.4037 87.0917 59.0498 87.0914C60.9479 87.0914 62.2798 86.6007 63.239 85.8889C64.2082 85.1693 64.887 84.1564 65.3583 82.9759C66.319 80.569 66.331 77.7027 66.331 75.9092C66.331 75.2631 66.8557 74.7374 67.5018 74.7372Z" fill="#FADA00"/>
</svg>
