<svg width="382" height="150" viewBox="0 0 382 150" fill="none" xmlns="http://www.w3.org/2000/svg">
<path d="M0 8C0 3.58172 3.58172 0 8 0H374C378.418 0 382 3.58172 382 8V142C382 146.418 378.418 150 374 150H7.99999C3.58172 150 0 146.418 0 142V8Z" fill="#E6E6E6"/>
<path fill-rule="evenodd" clip-rule="evenodd" d="M173.884 32.6161C173.396 32.128 172.604 32.128 172.116 32.6161C171.628 33.1043 171.628 33.8957 172.116 34.3839L177.482 39.75H176.75C174.683 39.75 173 41.433 173 43.5V62.25C173 64.317 174.683 66 176.75 66H203.732L207.116 69.3839C207.604 69.872 208.396 69.872 208.884 69.3839C209.372 68.8957 209.372 68.1043 208.884 67.6161L206.509 65.2411C207.414 64.5557 208 63.4697 208 62.25V43.5C208 41.433 206.317 39.75 204.25 39.75H198.669L196.54 36.5566C196.309 36.2083 195.919 36 195.5 36H185.5C185.082 36 184.691 36.2083 184.46 36.5566L182.331 39.75H181.018L173.884 32.6161ZM185.575 47.8432C183.997 49.2181 183 51.2426 183 53.5C183 57.6421 186.358 61 190.5 61C192.757 61 194.782 60.0027 196.157 58.4246L185.575 47.8432ZM197.49 56.2227L187.777 46.5095C188.621 46.1805 189.54 46 190.5 46C194.642 46 198 49.3579 198 53.5C198 54.4604 197.819 55.3787 197.49 56.2227ZM202.774 47.3933C202.774 48.1501 202.152 48.7718 201.379 48.7718C200.621 48.7718 200.001 48.1501 200.001 47.3933C200.001 46.6217 200.622 46 201.379 46C202.152 46 202.774 46.6201 202.774 47.3933Z" fill="#808080"/>
<path d="M59.667 94L58.4229 90.8213H54.417L53.1865 94H52.0107L55.9619 83.9648H56.9395L60.8701 94H59.667ZM58.0605 89.7754L56.8984 86.6787C56.748 86.2868 56.5931 85.806 56.4336 85.2363C56.3333 85.6738 56.1898 86.1546 56.0029 86.6787L54.8271 89.7754H58.0605ZM61.1641 97.3633C60.7311 97.3633 60.3802 97.3063 60.1113 97.1924V96.2695C60.4258 96.3607 60.7357 96.4062 61.041 96.4062C61.3965 96.4062 61.6562 96.3083 61.8203 96.1123C61.9889 95.9209 62.0732 95.627 62.0732 95.2305V86.5078H63.208V95.1484C63.208 96.625 62.5267 97.3633 61.1641 97.3633ZM61.9775 84.4775C61.9775 84.2178 62.0413 84.0286 62.1689 83.9102C62.2965 83.7871 62.4561 83.7256 62.6475 83.7256C62.8298 83.7256 62.987 83.7871 63.1191 83.9102C63.2513 84.0332 63.3174 84.2223 63.3174 84.4775C63.3174 84.7327 63.2513 84.9242 63.1191 85.0518C62.987 85.1748 62.8298 85.2363 62.6475 85.2363C62.4561 85.2363 62.2965 85.1748 62.1689 85.0518C62.0413 84.9242 61.9775 84.7327 61.9775 84.4775ZM72.0811 90.2471C72.0811 91.4684 71.7734 92.4232 71.1582 93.1113C70.543 93.7949 69.693 94.1367 68.6084 94.1367C67.9385 94.1367 67.3438 93.9795 66.8242 93.665C66.3047 93.3506 65.9036 92.8994 65.6211 92.3115C65.3385 91.7236 65.1973 91.0355 65.1973 90.2471C65.1973 89.0257 65.5026 88.0755 66.1133 87.3965C66.724 86.7129 67.5716 86.3711 68.6562 86.3711C69.7044 86.3711 70.5361 86.7197 71.1514 87.417C71.7712 88.1143 72.0811 89.0576 72.0811 90.2471ZM66.373 90.2471C66.373 91.2041 66.5645 91.9333 66.9473 92.4346C67.3301 92.9359 67.8929 93.1865 68.6357 93.1865C69.3786 93.1865 69.9414 92.9382 70.3242 92.4414C70.7116 91.9401 70.9053 91.2087 70.9053 90.2471C70.9053 89.2946 70.7116 88.5723 70.3242 88.0801C69.9414 87.5833 69.374 87.335 68.6221 87.335C67.8792 87.335 67.3187 87.5788 66.9404 88.0664C66.5622 88.554 66.373 89.2809 66.373 90.2471ZM75.1436 86.5078V91.3682C75.1436 91.9788 75.2826 92.4346 75.5605 92.7354C75.8385 93.0361 76.2738 93.1865 76.8662 93.1865C77.6501 93.1865 78.222 92.9723 78.582 92.5439C78.9466 92.1156 79.1289 91.416 79.1289 90.4453V86.5078H80.2637V94H79.3271L79.1631 92.9951H79.1016C78.8691 93.3643 78.5456 93.6468 78.1309 93.8428C77.7207 94.0387 77.2513 94.1367 76.7227 94.1367C75.8112 94.1367 75.1276 93.9202 74.6719 93.4873C74.2207 93.0544 73.9951 92.3617 73.9951 91.4092V86.5078H75.1436ZM85.0967 93.2002C85.2972 93.2002 85.4909 93.1865 85.6777 93.1592C85.8646 93.1273 86.0127 93.0954 86.1221 93.0635V93.9316C85.999 93.9909 85.8167 94.0387 85.5752 94.0752C85.3382 94.1162 85.124 94.1367 84.9326 94.1367C83.4834 94.1367 82.7588 93.3734 82.7588 91.8467V87.3896H81.6855V86.8428L82.7588 86.3711L83.2373 84.7715H83.8936V86.5078H86.0674V87.3896H83.8936V91.7988C83.8936 92.25 84.0007 92.5964 84.2148 92.8379C84.429 93.0794 84.723 93.2002 85.0967 93.2002ZM90.791 94.1367C89.6836 94.1367 88.8086 93.7995 88.166 93.125C87.528 92.4505 87.209 91.514 87.209 90.3154C87.209 89.1077 87.5052 88.1484 88.0977 87.4375C88.6947 86.7266 89.4945 86.3711 90.4971 86.3711C91.4359 86.3711 92.1787 86.681 92.7256 87.3008C93.2725 87.916 93.5459 88.7295 93.5459 89.7412V90.459H88.3848C88.4076 91.3385 88.6286 92.0062 89.0479 92.4619C89.4717 92.9176 90.0664 93.1455 90.832 93.1455C91.6387 93.1455 92.4362 92.9769 93.2246 92.6396V93.6514C92.8236 93.8245 92.443 93.9476 92.083 94.0205C91.7275 94.098 91.2969 94.1367 90.791 94.1367ZM90.4834 87.3213C89.8818 87.3213 89.401 87.5173 89.041 87.9092C88.6855 88.3011 88.4759 88.8434 88.4121 89.5361H92.3291C92.3291 88.8206 92.1696 88.2738 91.8506 87.8955C91.5316 87.5127 91.0758 87.3213 90.4834 87.3213ZM100.279 94H94.8447V93.2275L98.9326 87.3896H95.0977V86.5078H100.177V87.3896L96.1436 93.1182H100.279V94ZM108.667 94.1367C107.582 94.1367 106.742 93.804 106.145 93.1387C105.552 92.4688 105.256 91.5231 105.256 90.3018C105.256 89.0485 105.557 88.0801 106.158 87.3965C106.764 86.7129 107.626 86.3711 108.742 86.3711C109.102 86.3711 109.462 86.4098 109.822 86.4873C110.182 86.5648 110.465 86.6559 110.67 86.7607L110.321 87.7246C110.071 87.6243 109.797 87.5423 109.501 87.4785C109.205 87.4102 108.943 87.376 108.715 87.376C107.193 87.376 106.432 88.3467 106.432 90.2881C106.432 91.2087 106.616 91.915 106.985 92.4072C107.359 92.8994 107.91 93.1455 108.64 93.1455C109.264 93.1455 109.904 93.0111 110.561 92.7422V93.7471C110.059 94.0068 109.428 94.1367 108.667 94.1367ZM115.51 94.1367C114.402 94.1367 113.527 93.7995 112.885 93.125C112.247 92.4505 111.928 91.514 111.928 90.3154C111.928 89.1077 112.224 88.1484 112.816 87.4375C113.413 86.7266 114.213 86.3711 115.216 86.3711C116.155 86.3711 116.897 86.681 117.444 87.3008C117.991 87.916 118.265 88.7295 118.265 89.7412V90.459H113.104C113.126 91.3385 113.347 92.0062 113.767 92.4619C114.19 92.9176 114.785 93.1455 115.551 93.1455C116.357 93.1455 117.155 92.9769 117.943 92.6396V93.6514C117.542 93.8245 117.162 93.9476 116.802 94.0205C116.446 94.098 116.016 94.1367 115.51 94.1367ZM115.202 87.3213C114.601 87.3213 114.12 87.5173 113.76 87.9092C113.404 88.3011 113.195 88.8434 113.131 89.5361H117.048C117.048 88.8206 116.888 88.2738 116.569 87.8955C116.25 87.5127 115.795 87.3213 115.202 87.3213ZM122.626 93.2002C122.826 93.2002 123.02 93.1865 123.207 93.1592C123.394 93.1273 123.542 93.0954 123.651 93.0635V93.9316C123.528 93.9909 123.346 94.0387 123.104 94.0752C122.868 94.1162 122.653 94.1367 122.462 94.1367C121.013 94.1367 120.288 93.3734 120.288 91.8467V87.3896H119.215V86.8428L120.288 86.3711L120.767 84.7715H121.423V86.5078H123.597V87.3896H121.423V91.7988C121.423 92.25 121.53 92.5964 121.744 92.8379C121.958 93.0794 122.252 93.2002 122.626 93.2002ZM127.575 93.2002C127.776 93.2002 127.969 93.1865 128.156 93.1592C128.343 93.1273 128.491 93.0954 128.601 93.0635V93.9316C128.478 93.9909 128.295 94.0387 128.054 94.0752C127.817 94.1162 127.603 94.1367 127.411 94.1367C125.962 94.1367 125.237 93.3734 125.237 91.8467V87.3896H124.164V86.8428L125.237 86.3711L125.716 84.7715H126.372V86.5078H128.546V87.3896H126.372V91.7988C126.372 92.25 126.479 92.5964 126.693 92.8379C126.908 93.0794 127.201 93.2002 127.575 93.2002ZM133.27 94.1367C132.162 94.1367 131.287 93.7995 130.645 93.125C130.007 92.4505 129.688 91.514 129.688 90.3154C129.688 89.1077 129.984 88.1484 130.576 87.4375C131.173 86.7266 131.973 86.3711 132.976 86.3711C133.914 86.3711 134.657 86.681 135.204 87.3008C135.751 87.916 136.024 88.7295 136.024 89.7412V90.459H130.863C130.886 91.3385 131.107 92.0062 131.526 92.4619C131.95 92.9176 132.545 93.1455 133.311 93.1455C134.117 93.1455 134.915 92.9769 135.703 92.6396V93.6514C135.302 93.8245 134.922 93.9476 134.562 94.0205C134.206 94.098 133.775 94.1367 133.27 94.1367ZM132.962 87.3213C132.36 87.3213 131.88 87.5173 131.52 87.9092C131.164 88.3011 130.954 88.8434 130.891 89.5361H134.808C134.808 88.8206 134.648 88.2738 134.329 87.8955C134.01 87.5127 133.554 87.3213 132.962 87.3213ZM146.702 92.9951H146.641C146.117 93.7562 145.333 94.1367 144.289 94.1367C143.309 94.1367 142.546 93.8018 141.999 93.1318C141.457 92.4619 141.186 91.5094 141.186 90.2744C141.186 89.0394 141.459 88.0801 142.006 87.3965C142.553 86.7129 143.314 86.3711 144.289 86.3711C145.305 86.3711 146.085 86.7402 146.627 87.4785H146.716L146.668 86.9385L146.641 86.4121V83.3633H147.775V94H146.853L146.702 92.9951ZM144.433 93.1865C145.207 93.1865 145.768 92.9769 146.114 92.5576C146.465 92.1338 146.641 91.4525 146.641 90.5137V90.2744C146.641 89.2126 146.463 88.4561 146.107 88.0049C145.757 87.5492 145.194 87.3213 144.419 87.3213C143.754 87.3213 143.243 87.5811 142.888 88.1006C142.537 88.6156 142.361 89.3447 142.361 90.2881C142.361 91.2451 142.537 91.9674 142.888 92.4551C143.239 92.9427 143.754 93.1865 144.433 93.1865ZM153.354 94.1367C152.246 94.1367 151.371 93.7995 150.729 93.125C150.09 92.4505 149.771 91.514 149.771 90.3154C149.771 89.1077 150.068 88.1484 150.66 87.4375C151.257 86.7266 152.057 86.3711 153.06 86.3711C153.998 86.3711 154.741 86.681 155.288 87.3008C155.835 87.916 156.108 88.7295 156.108 89.7412V90.459H150.947C150.97 91.3385 151.191 92.0062 151.61 92.4619C152.034 92.9176 152.629 93.1455 153.395 93.1455C154.201 93.1455 154.999 92.9769 155.787 92.6396V93.6514C155.386 93.8245 155.006 93.9476 154.646 94.0205C154.29 94.098 153.859 94.1367 153.354 94.1367ZM153.046 87.3213C152.444 87.3213 151.964 87.5173 151.604 87.9092C151.248 88.3011 151.038 88.8434 150.975 89.5361H154.892C154.892 88.8206 154.732 88.2738 154.413 87.8955C154.094 87.5127 153.638 87.3213 153.046 87.3213ZM152.205 85.3457C152.424 85.0632 152.659 84.7214 152.909 84.3203C153.164 83.9193 153.365 83.5706 153.511 83.2744H154.892V83.418C154.691 83.7142 154.393 84.0788 153.996 84.5117C153.6 84.9447 153.256 85.2796 152.964 85.5166H152.205V85.3457ZM161.044 94.1367C159.959 94.1367 159.118 93.804 158.521 93.1387C157.929 92.4688 157.633 91.5231 157.633 90.3018C157.633 89.0485 157.934 88.0801 158.535 87.3965C159.141 86.7129 160.003 86.3711 161.119 86.3711C161.479 86.3711 161.839 86.4098 162.199 86.4873C162.559 86.5648 162.842 86.6559 163.047 86.7607L162.698 87.7246C162.448 87.6243 162.174 87.5423 161.878 87.4785C161.582 87.4102 161.32 87.376 161.092 87.376C159.57 87.376 158.809 88.3467 158.809 90.2881C158.809 91.2087 158.993 91.915 159.362 92.4072C159.736 92.8994 160.287 93.1455 161.017 93.1455C161.641 93.1455 162.281 93.0111 162.938 92.7422V93.7471C162.436 94.0068 161.805 94.1367 161.044 94.1367ZM171.188 90.2471C171.188 91.4684 170.881 92.4232 170.266 93.1113C169.65 93.7949 168.8 94.1367 167.716 94.1367C167.046 94.1367 166.451 93.9795 165.932 93.665C165.412 93.3506 165.011 92.8994 164.729 92.3115C164.446 91.7236 164.305 91.0355 164.305 90.2471C164.305 89.0257 164.61 88.0755 165.221 87.3965C165.831 86.7129 166.679 86.3711 167.764 86.3711C168.812 86.3711 169.644 86.7197 170.259 87.417C170.879 88.1143 171.188 89.0576 171.188 90.2471ZM165.48 90.2471C165.48 91.2041 165.672 91.9333 166.055 92.4346C166.438 92.9359 167 93.1865 167.743 93.1865C168.486 93.1865 169.049 92.9382 169.432 92.4414C169.819 91.9401 170.013 91.2087 170.013 90.2471C170.013 89.2946 169.819 88.5723 169.432 88.0801C169.049 87.5833 168.481 87.335 167.729 87.335C166.987 87.335 166.426 87.5788 166.048 88.0664C165.67 88.554 165.48 89.2809 165.48 90.2471ZM174.251 86.5078V91.3682C174.251 91.9788 174.39 92.4346 174.668 92.7354C174.946 93.0361 175.381 93.1865 175.974 93.1865C176.757 93.1865 177.329 92.9723 177.689 92.5439C178.054 92.1156 178.236 91.416 178.236 90.4453V86.5078H179.371V94H178.435L178.271 92.9951H178.209C177.977 93.3643 177.653 93.6468 177.238 93.8428C176.828 94.0387 176.359 94.1367 175.83 94.1367C174.919 94.1367 174.235 93.9202 173.779 93.4873C173.328 93.0544 173.103 92.3617 173.103 91.4092V86.5078H174.251ZM183.425 94L180.581 86.5078H181.798L183.411 90.9512C183.776 91.9902 183.99 92.6647 184.054 92.9746H184.108C184.159 92.7331 184.316 92.234 184.58 91.4775C184.849 90.7165 185.448 89.0599 186.378 86.5078H187.595L184.751 94H183.425ZM191.963 94.1367C190.855 94.1367 189.98 93.7995 189.338 93.125C188.7 92.4505 188.381 91.514 188.381 90.3154C188.381 89.1077 188.677 88.1484 189.27 87.4375C189.867 86.7266 190.666 86.3711 191.669 86.3711C192.608 86.3711 193.351 86.681 193.897 87.3008C194.444 87.916 194.718 88.7295 194.718 89.7412V90.459H189.557C189.579 91.3385 189.8 92.0062 190.22 92.4619C190.644 92.9176 191.238 93.1455 192.004 93.1455C192.811 93.1455 193.608 92.9769 194.396 92.6396V93.6514C193.995 93.8245 193.615 93.9476 193.255 94.0205C192.899 94.098 192.469 94.1367 191.963 94.1367ZM191.655 87.3213C191.054 87.3213 190.573 87.5173 190.213 87.9092C189.857 88.3011 189.648 88.8434 189.584 89.5361H193.501C193.501 88.8206 193.341 88.2738 193.022 87.8955C192.703 87.5127 192.248 87.3213 191.655 87.3213ZM200.077 86.3711C200.41 86.3711 200.708 86.3984 200.973 86.4531L200.815 87.5059C200.506 87.4375 200.232 87.4033 199.995 87.4033C199.389 87.4033 198.869 87.6494 198.437 88.1416C198.008 88.6338 197.794 89.2467 197.794 89.9805V94H196.659V86.5078H197.596L197.726 87.8955H197.78C198.058 87.4079 198.393 87.0319 198.785 86.7676C199.177 86.5033 199.608 86.3711 200.077 86.3711ZM204.794 93.2002C204.994 93.2002 205.188 93.1865 205.375 93.1592C205.562 93.1273 205.71 93.0954 205.819 93.0635V93.9316C205.696 93.9909 205.514 94.0387 205.272 94.0752C205.035 94.1162 204.821 94.1367 204.63 94.1367C203.181 94.1367 202.456 93.3734 202.456 91.8467V87.3896H201.383V86.8428L202.456 86.3711L202.935 84.7715H203.591V86.5078H205.765V87.3896H203.591V91.7988C203.591 92.25 203.698 92.5964 203.912 92.8379C204.126 93.0794 204.42 93.2002 204.794 93.2002ZM210.488 94.1367C209.381 94.1367 208.506 93.7995 207.863 93.125C207.225 92.4505 206.906 91.514 206.906 90.3154C206.906 89.1077 207.202 88.1484 207.795 87.4375C208.392 86.7266 209.192 86.3711 210.194 86.3711C211.133 86.3711 211.876 86.681 212.423 87.3008C212.97 87.916 213.243 88.7295 213.243 89.7412V90.459H208.082C208.105 91.3385 208.326 92.0062 208.745 92.4619C209.169 92.9176 209.764 93.1455 210.529 93.1455C211.336 93.1455 212.133 92.9769 212.922 92.6396V93.6514C212.521 93.8245 212.14 93.9476 211.78 94.0205C211.425 94.098 210.994 94.1367 210.488 94.1367ZM210.181 87.3213C209.579 87.3213 209.098 87.5173 208.738 87.9092C208.383 88.3011 208.173 88.8434 208.109 89.5361H212.026C212.026 88.8206 211.867 88.2738 211.548 87.8955C211.229 87.5127 210.773 87.3213 210.181 87.3213ZM223.429 94L223.203 92.9336H223.148C222.775 93.403 222.401 93.722 222.027 93.8906C221.658 94.0547 221.196 94.1367 220.64 94.1367C219.897 94.1367 219.313 93.9453 218.89 93.5625C218.47 93.1797 218.261 92.6351 218.261 91.9287C218.261 90.4157 219.471 89.6227 221.891 89.5498L223.162 89.5088V89.0439C223.162 88.4561 223.035 88.0231 222.779 87.7451C222.529 87.4626 222.125 87.3213 221.569 87.3213C220.945 87.3213 220.239 87.5127 219.45 87.8955L219.102 87.0273C219.471 86.8268 219.874 86.6696 220.312 86.5557C220.754 86.4417 221.196 86.3848 221.638 86.3848C222.531 86.3848 223.192 86.583 223.62 86.9795C224.053 87.376 224.27 88.0117 224.27 88.8867V94H223.429ZM220.865 93.2002C221.572 93.2002 222.125 93.0065 222.526 92.6191C222.932 92.2318 223.135 91.6895 223.135 90.9922V90.3154L222 90.3633C221.098 90.3952 220.446 90.5365 220.045 90.7871C219.648 91.0332 219.45 91.4183 219.45 91.9424C219.45 92.3525 219.573 92.6647 219.819 92.8789C220.07 93.0931 220.419 93.2002 220.865 93.2002ZM222.212 85.5166H221.46C221.164 85.2796 220.813 84.9424 220.407 84.5049C220.002 84.0674 219.708 83.7051 219.525 83.418V83.2744H220.913C221.059 83.5889 221.262 83.9535 221.521 84.3682C221.781 84.7783 222.011 85.1042 222.212 85.3457V85.5166ZM231.892 94L229.048 86.5078H230.265L231.878 90.9512C232.243 91.9902 232.457 92.6647 232.521 92.9746H232.575C232.625 92.7331 232.783 92.234 233.047 91.4775C233.316 90.7165 233.915 89.0599 234.845 86.5078H236.062L233.218 94H231.892ZM243.731 90.2471C243.731 91.4684 243.424 92.4232 242.809 93.1113C242.193 93.7949 241.343 94.1367 240.259 94.1367C239.589 94.1367 238.994 93.9795 238.475 93.665C237.955 93.3506 237.554 92.8994 237.271 92.3115C236.989 91.7236 236.848 91.0355 236.848 90.2471C236.848 89.0257 237.153 88.0755 237.764 87.3965C238.374 86.7129 239.222 86.3711 240.307 86.3711C241.355 86.3711 242.187 86.7197 242.802 87.417C243.422 88.1143 243.731 89.0576 243.731 90.2471ZM238.023 90.2471C238.023 91.2041 238.215 91.9333 238.598 92.4346C238.98 92.9359 239.543 93.1865 240.286 93.1865C241.029 93.1865 241.592 92.9382 241.975 92.4414C242.362 91.9401 242.556 91.2087 242.556 90.2471C242.556 89.2946 242.362 88.5723 241.975 88.0801C241.592 87.5833 241.024 87.335 240.272 87.335C239.53 87.335 238.969 87.5788 238.591 88.0664C238.213 88.554 238.023 89.2809 238.023 90.2471ZM248.147 93.2002C248.348 93.2002 248.542 93.1865 248.729 93.1592C248.915 93.1273 249.063 93.0954 249.173 93.0635V93.9316C249.05 93.9909 248.868 94.0387 248.626 94.0752C248.389 94.1162 248.175 94.1367 247.983 94.1367C246.534 94.1367 245.81 93.3734 245.81 91.8467V87.3896H244.736V86.8428L245.81 86.3711L246.288 84.7715H246.944V86.5078H249.118V87.3896H246.944V91.7988C246.944 92.25 247.051 92.5964 247.266 92.8379C247.48 93.0794 247.774 93.2002 248.147 93.2002ZM254.095 86.3711C254.427 86.3711 254.726 86.3984 254.99 86.4531L254.833 87.5059C254.523 87.4375 254.25 87.4033 254.013 87.4033C253.407 87.4033 252.887 87.6494 252.454 88.1416C252.026 88.6338 251.812 89.2467 251.812 89.9805V94H250.677V86.5078H251.613L251.743 87.8955H251.798C252.076 87.4079 252.411 87.0319 252.803 86.7676C253.195 86.5033 253.625 86.3711 254.095 86.3711ZM259.557 94.1367C258.449 94.1367 257.574 93.7995 256.932 93.125C256.294 92.4505 255.975 91.514 255.975 90.3154C255.975 89.1077 256.271 88.1484 256.863 87.4375C257.46 86.7266 258.26 86.3711 259.263 86.3711C260.201 86.3711 260.944 86.681 261.491 87.3008C262.038 87.916 262.312 88.7295 262.312 89.7412V90.459H257.15C257.173 91.3385 257.394 92.0062 257.813 92.4619C258.237 92.9176 258.832 93.1455 259.598 93.1455C260.404 93.1455 261.202 92.9769 261.99 92.6396V93.6514C261.589 93.8245 261.209 93.9476 260.849 94.0205C260.493 94.098 260.062 94.1367 259.557 94.1367ZM259.249 87.3213C258.647 87.3213 258.167 87.5173 257.807 87.9092C257.451 88.3011 257.242 88.8434 257.178 89.5361H261.095C261.095 88.8206 260.935 88.2738 260.616 87.8955C260.297 87.5127 259.841 87.3213 259.249 87.3213ZM270.884 94.1367C269.799 94.1367 268.958 93.804 268.361 93.1387C267.769 92.4688 267.473 91.5231 267.473 90.3018C267.473 89.0485 267.773 88.0801 268.375 87.3965C268.981 86.7129 269.842 86.3711 270.959 86.3711C271.319 86.3711 271.679 86.4098 272.039 86.4873C272.399 86.5648 272.682 86.6559 272.887 86.7607L272.538 87.7246C272.287 87.6243 272.014 87.5423 271.718 87.4785C271.422 87.4102 271.16 87.376 270.932 87.376C269.41 87.376 268.648 88.3467 268.648 90.2881C268.648 91.2087 268.833 91.915 269.202 92.4072C269.576 92.8994 270.127 93.1455 270.856 93.1455C271.481 93.1455 272.121 93.0111 272.777 92.7422V93.7471C272.276 94.0068 271.645 94.1367 270.884 94.1367ZM281.028 90.2471C281.028 91.4684 280.721 92.4232 280.105 93.1113C279.49 93.7949 278.64 94.1367 277.556 94.1367C276.886 94.1367 276.291 93.9795 275.771 93.665C275.252 93.3506 274.851 92.8994 274.568 92.3115C274.286 91.7236 274.145 91.0355 274.145 90.2471C274.145 89.0257 274.45 88.0755 275.061 87.3965C275.671 86.7129 276.519 86.3711 277.604 86.3711C278.652 86.3711 279.483 86.7197 280.099 87.417C280.718 88.1143 281.028 89.0576 281.028 90.2471ZM275.32 90.2471C275.32 91.2041 275.512 91.9333 275.895 92.4346C276.277 92.9359 276.84 93.1865 277.583 93.1865C278.326 93.1865 278.889 92.9382 279.271 92.4414C279.659 91.9401 279.853 91.2087 279.853 90.2471C279.853 89.2946 279.659 88.5723 279.271 88.0801C278.889 87.5833 278.321 87.335 277.569 87.335C276.826 87.335 276.266 87.5788 275.888 88.0664C275.509 88.554 275.32 89.2809 275.32 90.2471ZM284.159 94H283.024V83.3633H284.159V94ZM287.7 94H286.565V83.3633H287.7V94ZM293.271 94.1367C292.164 94.1367 291.289 93.7995 290.646 93.125C290.008 92.4505 289.689 91.514 289.689 90.3154C289.689 89.1077 289.986 88.1484 290.578 87.4375C291.175 86.7266 291.975 86.3711 292.978 86.3711C293.916 86.3711 294.659 86.681 295.206 87.3008C295.753 87.916 296.026 88.7295 296.026 89.7412V90.459H290.865C290.888 91.3385 291.109 92.0062 291.528 92.4619C291.952 92.9176 292.547 93.1455 293.312 93.1455C294.119 93.1455 294.917 92.9769 295.705 92.6396V93.6514C295.304 93.8245 294.924 93.9476 294.563 94.0205C294.208 94.098 293.777 94.1367 293.271 94.1367ZM292.964 87.3213C292.362 87.3213 291.882 87.5173 291.521 87.9092C291.166 88.3011 290.956 88.8434 290.893 89.5361H294.81C294.81 88.8206 294.65 88.2738 294.331 87.8955C294.012 87.5127 293.556 87.3213 292.964 87.3213ZM300.962 94.1367C299.877 94.1367 299.036 93.804 298.439 93.1387C297.847 92.4688 297.551 91.5231 297.551 90.3018C297.551 89.0485 297.852 88.0801 298.453 87.3965C299.059 86.7129 299.921 86.3711 301.037 86.3711C301.397 86.3711 301.757 86.4098 302.117 86.4873C302.477 86.5648 302.76 86.6559 302.965 86.7607L302.616 87.7246C302.366 87.6243 302.092 87.5423 301.796 87.4785C301.5 87.4102 301.238 87.376 301.01 87.376C299.488 87.376 298.727 88.3467 298.727 90.2881C298.727 91.2087 298.911 91.915 299.28 92.4072C299.654 92.8994 300.205 93.1455 300.935 93.1455C301.559 93.1455 302.199 93.0111 302.855 92.7422V93.7471C302.354 94.0068 301.723 94.1367 300.962 94.1367ZM307.06 93.2002C307.26 93.2002 307.454 93.1865 307.641 93.1592C307.827 93.1273 307.976 93.0954 308.085 93.0635V93.9316C307.962 93.9909 307.78 94.0387 307.538 94.0752C307.301 94.1162 307.087 94.1367 306.896 94.1367C305.446 94.1367 304.722 93.3734 304.722 91.8467V87.3896H303.648V86.8428L304.722 86.3711L305.2 84.7715H305.856V86.5078H308.03V87.3896H305.856V91.7988C305.856 92.25 305.964 92.5964 306.178 92.8379C306.392 93.0794 306.686 93.2002 307.06 93.2002ZM310.724 94H309.589V86.5078H310.724V94ZM309.493 84.4775C309.493 84.2178 309.557 84.0286 309.685 83.9102C309.812 83.7871 309.972 83.7256 310.163 83.7256C310.345 83.7256 310.503 83.7871 310.635 83.9102C310.767 84.0332 310.833 84.2223 310.833 84.4775C310.833 84.7327 310.767 84.9242 310.635 85.0518C310.503 85.1748 310.345 85.2363 310.163 85.2363C309.972 85.2363 309.812 85.1748 309.685 85.0518C309.557 84.9242 309.493 84.7327 309.493 84.4775ZM319.597 90.2471C319.597 91.4684 319.289 92.4232 318.674 93.1113C318.059 93.7949 317.209 94.1367 316.124 94.1367C315.454 94.1367 314.859 93.9795 314.34 93.665C313.82 93.3506 313.419 92.8994 313.137 92.3115C312.854 91.7236 312.713 91.0355 312.713 90.2471C312.713 89.0257 313.018 88.0755 313.629 87.3965C314.24 86.7129 315.087 86.3711 316.172 86.3711C317.22 86.3711 318.052 86.7197 318.667 87.417C319.287 88.1143 319.597 89.0576 319.597 90.2471ZM313.889 90.2471C313.889 91.2041 314.08 91.9333 314.463 92.4346C314.846 92.9359 315.409 93.1865 316.151 93.1865C316.894 93.1865 317.457 92.9382 317.84 92.4414C318.227 91.9401 318.421 91.2087 318.421 90.2471C318.421 89.2946 318.227 88.5723 317.84 88.0801C317.457 87.5833 316.89 87.335 316.138 87.335C315.395 87.335 314.834 87.5788 314.456 88.0664C314.078 88.554 313.889 89.2809 313.889 90.2471ZM326.72 94V89.1533C326.72 88.5426 326.581 88.0869 326.303 87.7861C326.025 87.4854 325.59 87.335 324.997 87.335C324.213 87.335 323.639 87.5469 323.274 87.9707C322.91 88.3945 322.728 89.0941 322.728 90.0693V94H321.593V86.5078H322.516L322.7 87.5332H322.755C322.987 87.1641 323.313 86.8792 323.732 86.6787C324.152 86.4736 324.619 86.3711 325.134 86.3711C326.036 86.3711 326.715 86.5898 327.171 87.0273C327.627 87.4603 327.854 88.1553 327.854 89.1123V94H326.72ZM119.885 114.137C118.777 114.137 117.902 113.799 117.26 113.125C116.622 112.451 116.303 111.514 116.303 110.315C116.303 109.108 116.599 108.148 117.191 107.438C117.788 106.727 118.588 106.371 119.591 106.371C120.53 106.371 121.272 106.681 121.819 107.301C122.366 107.916 122.64 108.729 122.64 109.741V110.459H117.479C117.501 111.339 117.722 112.006 118.142 112.462C118.565 112.918 119.16 113.146 119.926 113.146C120.732 113.146 121.53 112.977 122.318 112.64V113.651C121.917 113.825 121.537 113.948 121.177 114.021C120.821 114.098 120.391 114.137 119.885 114.137ZM119.577 107.321C118.976 107.321 118.495 107.517 118.135 107.909C117.779 108.301 117.57 108.843 117.506 109.536H121.423C121.423 108.821 121.263 108.274 120.944 107.896C120.625 107.513 120.17 107.321 119.577 107.321ZM129.708 114V109.153C129.708 108.543 129.569 108.087 129.291 107.786C129.013 107.485 128.578 107.335 127.985 107.335C127.201 107.335 126.627 107.547 126.263 107.971C125.898 108.395 125.716 109.094 125.716 110.069V114H124.581V106.508H125.504L125.688 107.533H125.743C125.976 107.164 126.301 106.879 126.721 106.679C127.14 106.474 127.607 106.371 128.122 106.371C129.024 106.371 129.703 106.59 130.159 107.027C130.615 107.46 130.843 108.155 130.843 109.112V114H129.708ZM137.952 114H136.817V103.363H137.952V114ZM144.966 114L144.74 112.934H144.686C144.312 113.403 143.938 113.722 143.564 113.891C143.195 114.055 142.733 114.137 142.177 114.137C141.434 114.137 140.851 113.945 140.427 113.562C140.007 113.18 139.798 112.635 139.798 111.929C139.798 110.416 141.008 109.623 143.428 109.55L144.699 109.509V109.044C144.699 108.456 144.572 108.023 144.316 107.745C144.066 107.463 143.662 107.321 143.106 107.321C142.482 107.321 141.776 107.513 140.987 107.896L140.639 107.027C141.008 106.827 141.411 106.67 141.849 106.556C142.291 106.442 142.733 106.385 143.175 106.385C144.068 106.385 144.729 106.583 145.157 106.979C145.59 107.376 145.807 108.012 145.807 108.887V114H144.966ZM142.402 113.2C143.109 113.2 143.662 113.007 144.063 112.619C144.469 112.232 144.672 111.689 144.672 110.992V110.315L143.537 110.363C142.635 110.395 141.983 110.536 141.582 110.787C141.186 111.033 140.987 111.418 140.987 111.942C140.987 112.353 141.11 112.665 141.356 112.879C141.607 113.093 141.956 113.2 142.402 113.2ZM155.274 114.137C154.787 114.137 154.34 114.048 153.935 113.87C153.534 113.688 153.196 113.41 152.923 113.036H152.841C152.896 113.474 152.923 113.888 152.923 114.28V117.363H151.788V106.508H152.711L152.868 107.533H152.923C153.215 107.123 153.554 106.827 153.941 106.645C154.329 106.462 154.773 106.371 155.274 106.371C156.268 106.371 157.034 106.711 157.571 107.39C158.114 108.069 158.385 109.021 158.385 110.247C158.385 111.478 158.109 112.435 157.558 113.118C157.011 113.797 156.25 114.137 155.274 114.137ZM155.11 107.335C154.345 107.335 153.791 107.547 153.449 107.971C153.107 108.395 152.932 109.069 152.923 109.994V110.247C152.923 111.3 153.098 112.054 153.449 112.51C153.8 112.961 154.363 113.187 155.138 113.187C155.785 113.187 156.291 112.924 156.655 112.4C157.024 111.876 157.209 111.154 157.209 110.233C157.209 109.299 157.024 108.584 156.655 108.087C156.291 107.586 155.776 107.335 155.11 107.335ZM163.792 106.371C164.125 106.371 164.423 106.398 164.688 106.453L164.53 107.506C164.22 107.438 163.947 107.403 163.71 107.403C163.104 107.403 162.584 107.649 162.151 108.142C161.723 108.634 161.509 109.247 161.509 109.98V114H160.374V106.508H161.311L161.44 107.896H161.495C161.773 107.408 162.108 107.032 162.5 106.768C162.892 106.503 163.323 106.371 163.792 106.371ZM169.254 114.137C168.146 114.137 167.271 113.799 166.629 113.125C165.991 112.451 165.672 111.514 165.672 110.315C165.672 109.108 165.968 108.148 166.561 107.438C167.158 106.727 167.957 106.371 168.96 106.371C169.899 106.371 170.642 106.681 171.188 107.301C171.735 107.916 172.009 108.729 172.009 109.741V110.459H166.848C166.87 111.339 167.091 112.006 167.511 112.462C167.935 112.918 168.529 113.146 169.295 113.146C170.102 113.146 170.899 112.977 171.688 112.64V113.651C171.286 113.825 170.906 113.948 170.546 114.021C170.19 114.098 169.76 114.137 169.254 114.137ZM168.946 107.321C168.345 107.321 167.864 107.517 167.504 107.909C167.148 108.301 166.939 108.843 166.875 109.536H170.792C170.792 108.821 170.632 108.274 170.313 107.896C169.994 107.513 169.539 107.321 168.946 107.321ZM179.077 114V109.153C179.077 108.543 178.938 108.087 178.66 107.786C178.382 107.485 177.947 107.335 177.354 107.335C176.571 107.335 175.996 107.547 175.632 107.971C175.267 108.395 175.085 109.094 175.085 110.069V114H173.95V106.508H174.873L175.058 107.533H175.112C175.345 107.164 175.671 106.879 176.09 106.679C176.509 106.474 176.976 106.371 177.491 106.371C178.394 106.371 179.073 106.59 179.528 107.027C179.984 107.46 180.212 108.155 180.212 109.112V114H179.077ZM187.157 114L186.932 112.934H186.877C186.503 113.403 186.13 113.722 185.756 113.891C185.387 114.055 184.924 114.137 184.368 114.137C183.625 114.137 183.042 113.945 182.618 113.562C182.199 113.18 181.989 112.635 181.989 111.929C181.989 110.416 183.199 109.623 185.619 109.55L186.891 109.509V109.044C186.891 108.456 186.763 108.023 186.508 107.745C186.257 107.463 185.854 107.321 185.298 107.321C184.674 107.321 183.967 107.513 183.179 107.896L182.83 107.027C183.199 106.827 183.603 106.67 184.04 106.556C184.482 106.442 184.924 106.385 185.366 106.385C186.259 106.385 186.92 106.583 187.349 106.979C187.782 107.376 187.998 108.012 187.998 108.887V114H187.157ZM184.594 113.2C185.3 113.2 185.854 113.007 186.255 112.619C186.66 112.232 186.863 111.689 186.863 110.992V110.315L185.729 110.363C184.826 110.395 184.174 110.536 183.773 110.787C183.377 111.033 183.179 111.418 183.179 111.942C183.179 112.353 183.302 112.665 183.548 112.879C183.799 113.093 184.147 113.2 184.594 113.2ZM195.47 114V109.153C195.47 108.543 195.331 108.087 195.053 107.786C194.775 107.485 194.34 107.335 193.747 107.335C192.963 107.335 192.389 107.547 192.024 107.971C191.66 108.395 191.478 109.094 191.478 110.069V114H190.343V106.508H191.266L191.45 107.533H191.505C191.737 107.164 192.063 106.879 192.482 106.679C192.902 106.474 193.369 106.371 193.884 106.371C194.786 106.371 195.465 106.59 195.921 107.027C196.377 107.46 196.604 108.155 196.604 109.112V114H195.47ZM201.362 113.2C201.563 113.2 201.757 113.187 201.943 113.159C202.13 113.127 202.278 113.095 202.388 113.063V113.932C202.265 113.991 202.082 114.039 201.841 114.075C201.604 114.116 201.39 114.137 201.198 114.137C199.749 114.137 199.024 113.373 199.024 111.847V107.39H197.951V106.843L199.024 106.371L199.503 104.771H200.159V106.508H202.333V107.39H200.159V111.799C200.159 112.25 200.266 112.596 200.48 112.838C200.695 113.079 200.989 113.2 201.362 113.2ZM210.693 114.137C209.586 114.137 208.711 113.799 208.068 113.125C207.43 112.451 207.111 111.514 207.111 110.315C207.111 109.108 207.408 108.148 208 107.438C208.597 106.727 209.397 106.371 210.399 106.371C211.338 106.371 212.081 106.681 212.628 107.301C213.175 107.916 213.448 108.729 213.448 109.741V110.459H208.287C208.31 111.339 208.531 112.006 208.95 112.462C209.374 112.918 209.969 113.146 210.734 113.146C211.541 113.146 212.339 112.977 213.127 112.64V113.651C212.726 113.825 212.345 113.948 211.985 114.021C211.63 114.098 211.199 114.137 210.693 114.137ZM210.386 107.321C209.784 107.321 209.303 107.517 208.943 107.909C208.588 108.301 208.378 108.843 208.314 109.536H212.231C212.231 108.821 212.072 108.274 211.753 107.896C211.434 107.513 210.978 107.321 210.386 107.321ZM220.517 114V109.153C220.517 108.543 220.378 108.087 220.1 107.786C219.822 107.485 219.386 107.335 218.794 107.335C218.01 107.335 217.436 107.547 217.071 107.971C216.707 108.395 216.524 109.094 216.524 110.069V114H215.39V106.508H216.312L216.497 107.533H216.552C216.784 107.164 217.11 106.879 217.529 106.679C217.949 106.474 218.416 106.371 218.931 106.371C219.833 106.371 220.512 106.59 220.968 107.027C221.424 107.46 221.651 108.155 221.651 109.112V114H220.517ZM231.112 114.137C230.625 114.137 230.178 114.048 229.772 113.87C229.371 113.688 229.034 113.41 228.761 113.036H228.679C228.733 113.474 228.761 113.888 228.761 114.28V117.363H227.626V106.508H228.549L228.706 107.533H228.761C229.052 107.123 229.392 106.827 229.779 106.645C230.167 106.462 230.611 106.371 231.112 106.371C232.106 106.371 232.871 106.711 233.409 107.39C233.951 108.069 234.223 109.021 234.223 110.247C234.223 111.478 233.947 112.435 233.396 113.118C232.849 113.797 232.088 114.137 231.112 114.137ZM230.948 107.335C230.183 107.335 229.629 107.547 229.287 107.971C228.945 108.395 228.77 109.069 228.761 109.994V110.247C228.761 111.3 228.936 112.054 229.287 112.51C229.638 112.961 230.201 113.187 230.976 113.187C231.623 113.187 232.129 112.924 232.493 112.4C232.862 111.876 233.047 111.154 233.047 110.233C233.047 109.299 232.862 108.584 232.493 108.087C232.129 107.586 231.614 107.335 230.948 107.335ZM241.339 114V109.153C241.339 108.543 241.2 108.087 240.922 107.786C240.644 107.485 240.209 107.335 239.616 107.335C238.828 107.335 238.251 107.549 237.887 107.978C237.527 108.406 237.347 109.108 237.347 110.083V114H236.212V103.363H237.347V106.583C237.347 106.97 237.328 107.292 237.292 107.547H237.36C237.584 107.187 237.9 106.904 238.311 106.699C238.725 106.49 239.197 106.385 239.726 106.385C240.642 106.385 241.327 106.604 241.783 107.041C242.243 107.474 242.474 108.164 242.474 109.112V114H241.339ZM251.278 110.247C251.278 111.468 250.971 112.423 250.355 113.111C249.74 113.795 248.89 114.137 247.806 114.137C247.136 114.137 246.541 113.979 246.021 113.665C245.502 113.351 245.101 112.899 244.818 112.312C244.536 111.724 244.395 111.035 244.395 110.247C244.395 109.026 244.7 108.076 245.311 107.396C245.921 106.713 246.769 106.371 247.854 106.371C248.902 106.371 249.733 106.72 250.349 107.417C250.968 108.114 251.278 109.058 251.278 110.247ZM245.57 110.247C245.57 111.204 245.762 111.933 246.145 112.435C246.527 112.936 247.09 113.187 247.833 113.187C248.576 113.187 249.139 112.938 249.521 112.441C249.909 111.94 250.103 111.209 250.103 110.247C250.103 109.295 249.909 108.572 249.521 108.08C249.139 107.583 248.571 107.335 247.819 107.335C247.076 107.335 246.516 107.579 246.138 108.066C245.759 108.554 245.57 109.281 245.57 110.247ZM255.694 113.2C255.895 113.2 256.089 113.187 256.275 113.159C256.462 113.127 256.61 113.095 256.72 113.063V113.932C256.597 113.991 256.414 114.039 256.173 114.075C255.936 114.116 255.722 114.137 255.53 114.137C254.081 114.137 253.356 113.373 253.356 111.847V107.39H252.283V106.843L253.356 106.371L253.835 104.771H254.491V106.508H256.665V107.39H254.491V111.799C254.491 112.25 254.598 112.596 254.812 112.838C255.027 113.079 255.321 113.2 255.694 113.2ZM264.69 110.247C264.69 111.468 264.383 112.423 263.768 113.111C263.152 113.795 262.302 114.137 261.218 114.137C260.548 114.137 259.953 113.979 259.434 113.665C258.914 113.351 258.513 112.899 258.23 112.312C257.948 111.724 257.807 111.035 257.807 110.247C257.807 109.026 258.112 108.076 258.723 107.396C259.333 106.713 260.181 106.371 261.266 106.371C262.314 106.371 263.146 106.72 263.761 107.417C264.381 108.114 264.69 109.058 264.69 110.247ZM258.982 110.247C258.982 111.204 259.174 111.933 259.557 112.435C259.939 112.936 260.502 113.187 261.245 113.187C261.988 113.187 262.551 112.938 262.934 112.441C263.321 111.94 263.515 111.209 263.515 110.247C263.515 109.295 263.321 108.572 262.934 108.08C262.551 107.583 261.983 107.335 261.231 107.335C260.489 107.335 259.928 107.579 259.55 108.066C259.172 108.554 258.982 109.281 258.982 110.247Z" fill="#595959"/>
</svg>
