<svg width="24" height="24" viewBox="0 0 24 24" fill="none" xmlns="http://www.w3.org/2000/svg">
<path d="M11.7844 16.8699C11.3695 16.8699 11.0342 16.5398 11.0342 16.125C11.0342 14.2894 12.1435 12.763 13.6122 11.403C14.1996 10.8599 14.4501 10.058 14.2844 9.2583C14.1081 8.41364 13.4224 7.72801 12.5785 7.55173C11.8869 7.40995 11.2043 7.56673 10.6672 8.00407C10.1376 8.43315 9.83451 9.07002 9.83451 9.7504C9.83451 10.1652 9.4992 10.5005 9.08437 10.5005C8.66954 10.5005 8.33423 10.1652 8.33423 9.7504C8.33423 8.61618 8.83982 7.55473 9.72049 6.83909C10.6012 6.12271 11.7571 5.8459 12.8846 6.08295C14.3046 6.37926 15.4568 7.53223 15.7524 8.9515C16.0277 10.2725 15.6091 11.6003 14.6317 12.5034C13.4735 13.5761 12.5345 14.7117 12.5345 16.1138C12.5345 16.5286 12.1992 16.8699 11.7844 16.8699Z" fill="black"/>
<path d="M11.7844 19.5C12.1987 19.5 12.5345 19.1642 12.5345 18.7499C12.5345 18.3356 12.1987 17.9997 11.7844 17.9997C11.3701 17.9997 11.0342 18.3356 11.0342 18.7499C11.0342 19.1642 11.3701 19.5 11.7844 19.5Z" fill="black"/>
<path fill-rule="evenodd" clip-rule="evenodd" d="M12.0179 0.0344238C5.41033 0.0344238 0.0351562 5.4096 0.0351562 12.0172C0.0351562 18.6248 5.41033 24 12.0179 24C18.6256 24 24.0007 18.6248 24.0007 12.0172C24.0007 5.4096 18.6256 0.0344238 12.0179 0.0344238ZM12.0179 21.8167C6.61548 21.8167 2.21841 17.4208 2.21841 12.0172C2.21841 6.61366 6.61548 2.21768 12.0179 2.21768C17.4204 2.21768 21.8175 6.61366 21.8175 12.0172C21.8175 17.4208 17.4204 21.8167 12.0179 21.8167Z" fill="black"/>
</svg>
