<svg width="28" height="28" viewBox="0 0 28 28" fill="none" xmlns="http://www.w3.org/2000/svg">
<path d="M26.8034 25.0686L19 27.8612V2.85409L25.7297 0.109075C26.2635 -0.106084 26.8168 0.000533849 27.2732 0.398268C27.7296 0.796504 28 1.4355 28 2.11609V23.0595C28 23.5042 27.8842 23.9373 27.6698 24.298C27.455 24.6584 27.1521 24.9283 26.8034 25.0686Z" fill="black"/>
<path d="M9 0.138078L1.19678 2.93069C0.848087 3.07097 0.545238 3.34086 0.330392 3.70131C0.115545 4.06173 0 4.49504 0 4.93951V25.8829C0 26.5635 0.270359 27.2025 0.726805 27.6002C1.18323 27.9982 1.76978 28.1067 2.30352 27.8912L9 25.191V13.874C7.27477 13.4299 6 11.8638 6 10C6 8.13616 7.27477 6.57006 9 6.12602V0.138078Z" fill="black"/>
<path d="M11 13.874C12.7252 13.4299 14 11.8638 14 10C14 8.13616 12.7252 6.57006 11 6.12602V0.274385L17 2.7218V27.7248L11 25.2775V13.874Z" fill="black"/>
</svg>
