<svg width="48" height="48" viewBox="0 0 48 48" fill="none" xmlns="http://www.w3.org/2000/svg">
<g clip-path="url(#clip0_1130_2861)">
<path d="M28.2929 27.6029C30.2766 27.6029 31.8846 25.9948 31.8846 24.0112C31.8846 22.0275 30.2766 20.4194 28.2929 20.4194C26.3092 20.4194 24.7012 22.0275 24.7012 24.0112C24.7012 25.9948 26.3092 27.6029 28.2929 27.6029Z" fill="#FADA00"/>
<path d="M7.14453 37.1946V43.4387H39.5374V31.7715C39.5374 31.7715 24.932 31.9881 20.2153 33.8686C17.4864 34.9554 9.98624 37.7735 7.14453 37.1946Z" fill="#FADA00"/>
<path d="M32.7453 4.80894V2H31.0705V4.80894H15.8662V2H14.1914V4.80894H4.8125V46H42.2262V4.80894H32.7453ZM40.6169 44.3907H6.42177V18.5423H40.6169V44.3907ZM40.6169 16.9331H6.42177V6.4182H14.1914V9.17435H15.8662V6.4182H31.0723V9.17435H32.7471V6.4182H40.6187V16.9331H40.6169Z" fill="#1D1D1B"/>
</g>
<defs>
<clipPath id="clip0_1130_2861">
<rect width="37.4137" height="44" fill="white" transform="translate(4.8125 2)"/>
</clipPath>
</defs>
</svg>
