<svg width="80" height="80" viewBox="0 0 80 80" fill="none" xmlns="http://www.w3.org/2000/svg">
<g clip-path="url(#clip0_612_5333)">
<path d="M47.1552 46.0051C50.4612 46.0051 53.1414 43.325 53.1414 40.0189C53.1414 36.7128 50.4612 34.0327 47.1552 34.0327C43.8491 34.0327 41.1689 36.7128 41.1689 40.0189C41.1689 43.325 43.8491 46.0051 47.1552 46.0051Z" fill="#FADA00"/>
<path d="M11.9082 61.9911V72.398H65.8963V52.9526C65.8963 52.9526 41.554 53.3137 33.6928 56.4479C29.1447 58.2592 16.6444 62.9559 11.9082 61.9911Z" fill="#FADA00"/>
<path d="M54.5752 8.01506V3.3335H51.7839V8.01506H26.4433V3.3335H23.652V8.01506H8.02051V76.6668H70.3766V8.01506H54.5752ZM67.6945 73.9847H10.7026V30.904H67.6945V73.9847ZM67.6945 28.2219H10.7026V10.6972H23.652V15.2907H26.4433V10.6972H51.7869V15.2907H54.5782V10.6972H67.6975V28.2219H67.6945Z" fill="white"/>
</g>
<defs>
<clipPath id="clip0_612_5333">
<rect width="62.3561" height="73.3333" fill="white" transform="translate(8.02051 3.3335)"/>
</clipPath>
</defs>
</svg>
