<svg width="16" height="16" viewBox="0 0 16 16" fill="none" xmlns="http://www.w3.org/2000/svg">
<path fill-rule="evenodd" clip-rule="evenodd" d="M13.5002 3.5H11.2677L10.4161 2.22265C10.3237 2.08333 10.1674 2 10.0001 2H6.00008C5.83277 2 5.67652 2.08333 5.58407 2.22265L4.7325 3.5H2.5C1.67318 3.5 1 4.17318 1 5V12.5C1 13.3268 1.67318 14 2.5 14H13.5C14.3268 14 15 13.3268 15 12.5V5C15 4.17318 14.327 3.5 13.5002 3.5ZM11 9C11 10.6569 9.65685 12 8 12C6.34315 12 5 10.6569 5 9C5 7.34315 6.34315 6 8 6C9.65685 6 11 7.34315 11 9ZM12.3517 7.10873C12.661 7.10873 12.9097 6.86003 12.9097 6.5573C12.9097 6.24805 12.661 6 12.3517 6C12.049 6 11.8003 6.2487 11.8003 6.5573C11.8003 6.86003 12.0483 7.10873 12.3517 7.10873Z" fill="white"/>
</svg>
