<svg width="80" height="80" viewBox="0 0 80 80" fill="none" xmlns="http://www.w3.org/2000/svg">
<g clip-path="url(#clip0_612_5420)">
<path d="M10.7584 6.6665V15.9245H6.66602V18.4212H10.7584V28.1706H6.66602V30.6673H10.7584V40.4168H6.66602V42.9134H10.7584V52.6629H6.66602V55.1595H10.7584V64.909H6.66602V67.4057H10.7584V76.6637H70.6785V6.6665H10.7584ZM68.1819 74.1698H13.2551V67.4085H17.7626V64.9118H13.2551V55.1624H17.7626V52.6657H13.2551V42.9162H17.7626V40.4196H13.2551V30.6701H17.7626V28.1735H13.2551V18.4212H17.7626V15.9245H13.2551V9.16318H68.1819V74.1698Z" fill="white"/>
<path fill-rule="evenodd" clip-rule="evenodd" d="M42.2379 25.9424L47.4318 36.1522L58.8673 37.9032L50.5837 46.0711L52.507 57.3908L42.2379 52.1405L31.9123 57.3908L33.8357 46.0711L25.6113 37.9032L37.0469 36.1522L42.2379 25.9424Z" fill="#FADA00"/>
</g>
<defs>
<clipPath id="clip0_612_5420">
<rect width="64.0125" height="70" fill="white" transform="translate(6.66602 6.6665)"/>
</clipPath>
</defs>
</svg>
