<svg width="48" height="48" viewBox="0 0 48 48" fill="none" xmlns="http://www.w3.org/2000/svg">
<g clip-path="url(#clip0_1130_2890)">
<path d="M6.45544 4V9.55481H4V11.0528H6.45544V16.9025H4V18.4005H6.45544V24.2501H4V25.7482H6.45544V31.5978H4V33.0958H6.45544V38.9455H4V40.4435H6.45544V45.9983H42.4075V4H6.45544ZM40.9095 44.502H7.95344V40.4452H10.658V38.9472H7.95344V33.0975H10.658V31.5995H7.95344V25.7498H10.658V24.2518H7.95344V18.4022H10.658V16.9042H7.95344V11.0528H10.658V9.55481H7.95344V5.498H40.9095V44.502Z" fill="#1D1D1B"/>
<path fill-rule="evenodd" clip-rule="evenodd" d="M25.3431 15.5654L28.4595 21.6913L35.3208 22.7419L30.3506 27.6427L31.5046 34.4345L25.3431 31.2843L19.1478 34.4345L20.3018 27.6427L15.3672 22.7419L22.2285 21.6913L25.3431 15.5654Z" fill="#FADA00"/>
</g>
<defs>
<clipPath id="clip0_1130_2890">
<rect width="38.4075" height="42" fill="white" transform="translate(4 4)"/>
</clipPath>
</defs>
</svg>
