<svg width="16" height="22" viewBox="0 0 16 22" fill="none" xmlns="http://www.w3.org/2000/svg">
<path fill-rule="evenodd" clip-rule="evenodd" d="M14.7633 9.33176H13.3663V5.42198C13.3663 2.70794 10.9183 0.5 7.90908 0.5C4.8999 0.5 2.4521 2.70794 2.4521 5.42198V9.33176H1.23693C0.829929 9.33176 0.5 9.62912 0.5 9.9962V20.8356C0.5 21.2026 0.829929 21.5 1.23693 21.5H14.7633C15.1703 21.5 15.5 21.2026 15.5 20.8356V9.9962C15.5 9.62912 15.1703 9.33176 14.7633 9.33176ZM11.0924 9.33176H4.72598V5.42198C4.72598 3.83879 6.15396 2.55086 7.90931 2.55086C9.66466 2.55086 11.0926 3.83879 11.0926 5.42198L11.0924 9.33176ZM9.99998 14.5C9.99998 15.1372 9.70201 15.7048 9.2378 16.071L10.1633 18.2923C10.2045 18.3911 10.1319 18.5 10.0249 18.5H5.97486C5.86783 18.5 5.79523 18.3911 5.8364 18.2923L6.76199 16.0709C6.29788 15.7046 5.99998 15.1371 5.99998 14.5C5.99998 13.3954 6.89542 12.5 7.99998 12.5C9.10456 12.5 9.99998 13.3954 9.99998 14.5Z" fill="black"/>
</svg>
