<svg width="52" height="52" viewBox="0 0 52 52" fill="none" xmlns="http://www.w3.org/2000/svg">
<g clip-path="url(#clip0_2210_7666)">
<circle cx="26" cy="26" r="26" fill="#FADA00"/>
<path fill-rule="evenodd" clip-rule="evenodd" d="M8.16455 42.0595C11.167 35.973 16.9836 31 25.9994 31C35.2428 31 40.9735 35.9483 43.896 41.992C43.0986 42.8837 42.2355 43.7155 41.3143 44.4798C40.609 42.7802 39.6658 41.1726 38.476 39.7689C35.8319 36.6492 31.8483 34.375 25.9994 34.375C20.3729 34.375 16.3848 36.6207 13.6763 39.7673C12.4543 41.187 11.4772 42.8118 10.7431 44.5273C9.8237 43.7693 8.96168 42.9442 8.16455 42.0595ZM32.4716 17.5305C32.4716 21.3493 29.5669 24.25 25.9994 24.25C22.2557 24.25 19.1233 21.1727 19.1233 17.5305C19.1233 13.8621 22.2825 10.75 25.9994 10.75C29.5409 10.75 32.4716 13.6847 32.4716 17.5305ZM35.8466 17.5305C35.8466 23.1161 31.5265 27.625 25.9994 27.625C20.4722 27.625 15.7483 23.1161 15.7483 17.5305C15.7483 11.9449 20.4722 7.375 25.9994 7.375C31.5265 7.375 35.8466 11.9449 35.8466 17.5305Z" fill="white"/>
</g>
<defs>
<clipPath id="clip0_2210_7666">
<rect width="52" height="52" fill="white"/>
</clipPath>
</defs>
</svg>
