<svg width="48" height="48" viewBox="0 0 48 48" fill="none" xmlns="http://www.w3.org/2000/svg">
<g clip-path="url(#clip0_1130_2894)">
<path d="M24 4C12.9713 4 4 12.9713 4 24C4 35.0287 12.9713 44 24 44C35.0287 44 44 35.0287 44 24C44 12.9713 35.0287 4 24 4ZM24 42.7806C13.6438 42.7806 5.21941 34.3562 5.21941 24C5.21941 13.6438 13.6438 5.21941 24 5.21941C34.3562 5.21941 42.7806 13.6438 42.7806 24C42.7806 34.3562 34.3562 42.7806 24 42.7806Z" fill="#1D1D1B"/>
<path d="M17.1196 26.1153C18.2876 25.6315 18.8422 24.2925 18.3584 23.1246C17.8746 21.9566 16.5356 21.402 15.3677 21.8858C14.1997 22.3695 13.6451 23.7085 14.1289 24.8765C14.6127 26.0444 15.9517 26.5991 17.1196 26.1153Z" fill="#1D1D1B"/>
<path d="M24.8745 26.1158C26.0424 25.632 26.5971 24.293 26.1133 23.125C25.6295 21.9571 24.2905 21.4025 23.1226 21.8862C21.9546 22.37 21.4 23.709 21.8838 24.877C22.3676 26.0449 23.7065 26.5995 24.8745 26.1158Z" fill="#1D1D1B"/>
<path d="M32.6323 26.1153C33.8003 25.6315 34.3549 24.2925 33.8711 23.1246C33.3873 21.9566 32.0483 21.402 30.8804 21.8858C29.7124 22.3695 29.1578 23.7085 29.6416 24.8765C30.1254 26.0444 31.4644 26.5991 32.6323 26.1153Z" fill="#1D1D1B"/>
</g>
<defs>
<clipPath id="clip0_1130_2894">
<rect width="40" height="40" fill="white" transform="translate(4 4)"/>
</clipPath>
</defs>
</svg>
