<svg width="16" height="16" viewBox="0 0 16 16" fill="none" xmlns="http://www.w3.org/2000/svg">
<path fill-rule="evenodd" clip-rule="evenodd" d="M5.61479 4.95956C5.54393 5.10691 5.40549 5.2103 5.24408 5.23643L0.936255 5.93365C0.539234 5.99791 0.376698 6.48079 0.654057 6.77204L3.7868 10.0617C3.89451 10.1748 3.94318 10.3317 3.91838 10.4859L3.19214 15.0011C3.12637 15.41 3.5578 15.717 3.92258 15.5209L7.76257 13.4562C7.91079 13.3765 8.08916 13.3767 8.23719 13.4568L12.0477 15.5173C12.4125 15.7146 12.845 15.4076 12.7792 14.9981L12.0536 10.487C12.0287 10.3322 12.0779 10.1746 12.1864 10.0615L15.3406 6.77267C15.6196 6.48182 15.4575 5.99739 15.0596 5.933L10.7557 5.23643C10.5943 5.2103 10.4559 5.1069 10.385 4.95954L8.45061 0.936997C8.26896 0.559259 7.73107 0.559247 7.54941 0.936977L5.61479 4.95956Z" fill="#BFBFBF"/>
</svg>
