<svg width="28" height="28" viewBox="0 0 28 28" fill="none" xmlns="http://www.w3.org/2000/svg">
<path fill-rule="evenodd" clip-rule="evenodd" d="M14 20C17.3137 20 20 17.3137 20 14C20 10.6863 17.3137 8 14 8C10.6863 8 8 10.6863 8 14C8 17.3137 10.6863 20 14 20ZM18 14C18 16.2091 16.2091 18 14 18C11.7909 18 10 16.2091 10 14C10 11.7909 11.7909 10 14 10C16.2091 10 18 11.7909 18 14Z" fill="#333333"/>
<path fill-rule="evenodd" clip-rule="evenodd" d="M19.6998 24.0776C20.0103 23.8358 20.3503 23.6933 20.7128 23.6319L24.2666 23.6903C24.7548 23.6688 25.1118 23.4466 25.3644 23.0236C26.1781 21.6625 26.9918 20.3013 27.8068 18.9414C28.0676 18.5056 28.0663 18.0748 27.7912 17.6439C27.6353 17.3996 27.4828 17.1531 27.3304 16.9067C27.0185 16.4023 26.7067 15.8981 26.365 15.4124C26.0094 14.9066 25.8342 14.3934 25.8848 13.7815C25.9095 13.4818 25.9614 13.222 26.1301 12.9648C26.5245 12.361 26.9099 11.7523 27.2953 11.1434C27.4552 10.8909 27.6151 10.6383 27.7756 10.3861C28.0611 9.93652 28.0728 9.49071 27.7951 9.03116L27.7219 8.90986C26.9391 7.61153 26.1554 6.31185 25.3839 5.00512C25.0841 4.49687 24.6559 4.27334 24.0524 4.30081C23.7382 4.31505 23.4234 4.32041 23.1086 4.32577C22.6227 4.33404 22.137 4.3423 21.6542 4.38323C20.8885 4.44817 20.1995 4.33078 19.5921 3.86749C19.4623 3.76759 19.3248 3.65395 19.2456 3.51783C18.7084 2.59124 18.1828 1.65966 17.6624 0.724331C17.3912 0.23731 16.9889 -0.00245455 16.4075 4.29977e-05C14.8074 0.0087844 13.2073 0.0100332 11.6072 4.29977e-05C11.0128 -0.00370332 10.6066 0.23731 10.3315 0.741814C10.1641 1.0489 9.98877 1.35196 9.81346 1.65496C9.55247 2.10602 9.29157 2.55694 9.05714 3.02082C8.7937 3.54031 8.43682 3.91619 7.89567 4.16969C7.60627 4.30456 7.33894 4.40196 7.01191 4.38947C6.22926 4.35994 5.44661 4.342 4.66395 4.32407C4.38769 4.31773 4.11133 4.3114 3.83507 4.30456C3.34063 4.29207 2.94612 4.47814 2.69566 4.89023C1.85214 6.28261 1.0164 7.67874 0.181956 9.07611C-0.0711014 9.49945 -0.0581244 9.92653 0.20791 10.3461C0.353389 10.5757 0.49616 10.8072 0.638953 11.0387C0.959805 11.559 1.28078 12.0794 1.63282 12.5789C1.99618 13.0934 2.17268 13.6179 2.12077 14.2385C2.09611 14.5282 2.0429 14.7793 1.88198 15.0265C1.60061 15.4585 1.32565 15.8936 1.05073 16.3288C0.786776 16.7466 0.522856 17.1643 0.253332 17.579C-0.0594214 18.0598 -0.0659105 18.5231 0.232568 19.0138C1.03457 20.3325 1.83008 21.655 2.6139 22.9849C2.91238 23.4932 3.34582 23.7205 3.94278 23.6992C4.22808 23.6891 4.51386 23.6838 4.79967 23.6785C5.3251 23.6687 5.85063 23.6589 6.37343 23.6193C7.11184 23.5631 7.79055 23.6518 8.37583 24.1151C8.52766 24.2362 8.68858 24.3698 8.78331 24.5322C9.23902 25.3134 9.68153 26.101 10.1237 26.888L10.3536 27.2969C10.6144 27.7602 11.018 27.9963 11.5631 27.9975C12.3003 27.9986 13.0374 27.9985 13.7744 27.9983C14.6589 27.9981 15.5434 27.998 16.4282 28C16.9941 28.0012 17.3925 27.754 17.6585 27.2832C17.7693 27.0866 17.8796 26.8898 17.99 26.693C18.3879 25.9837 18.7857 25.2746 19.2002 24.5746C19.3144 24.3798 19.5143 24.2225 19.6998 24.0776ZM24.6432 11.9915C24.2396 12.6075 24.1487 13.2097 24.1137 13.6358C24.0227 14.7377 24.3641 15.6563 24.9112 16.4345C25.2239 16.8789 25.4889 17.3079 25.7822 17.7826C25.8872 17.9525 25.9958 18.1283 26.1116 18.313C25.4062 19.4903 24.7019 20.6684 23.998 21.8459H22.4899C22.243 21.8459 22.1006 21.8513 21.9999 21.8551C21.8802 21.8596 21.8195 21.8619 21.7121 21.8503C20.6843 21.7366 19.5804 21.9182 18.6079 22.6755L18.6063 22.6767L18.5764 22.6999C18.4167 22.8224 17.9672 23.1678 17.6711 23.6691C17.2449 24.3888 16.8337 25.1219 16.4344 25.8337L16.2162 26.2224C15.4056 26.2209 14.5871 26.221 13.7708 26.2212H13.7639C13.1018 26.2213 12.4411 26.2215 11.7872 26.2207L11.6743 26.0197C11.2324 25.2333 10.7819 24.4314 10.3184 23.6367C10.0464 23.1707 9.64662 22.8544 9.50527 22.7426L9.48412 22.7258L9.47883 22.7217C8.39684 21.8652 7.19278 21.7747 6.2391 21.8473C5.75972 21.8836 5.32571 21.8913 4.84135 21.8999C4.59415 21.9043 4.33378 21.9089 4.04763 21.9177C3.33573 20.7118 2.61527 19.5133 1.8905 18.32C2.11511 17.9713 2.33522 17.6229 2.55061 17.282L2.56956 17.252C2.83983 16.8242 3.10304 16.4079 3.37104 15.9965C3.75902 15.4004 3.85513 14.8166 3.8915 14.3892L3.89171 14.3867C3.98437 13.2789 3.64452 12.3473 3.08542 11.5551C2.76512 11.1007 2.49033 10.6549 2.18559 10.1605C2.09066 10.0064 1.9928 9.84767 1.88977 9.68249C2.60769 8.48073 3.32557 7.28229 4.04834 6.08739L4.63436 6.101C5.41296 6.11885 6.1765 6.13635 6.9449 6.16534C7.69915 6.19396 8.27792 5.95219 8.64636 5.78049L8.64954 5.779C9.58904 5.33889 10.2199 4.65718 10.6421 3.82459L10.6432 3.8224C10.8679 3.37781 11.0761 3.0199 11.3077 2.62189C11.4554 2.36799 11.6127 2.09774 11.7897 1.77829C13.266 1.78669 14.7412 1.78568 16.2152 1.77821C16.7046 2.65615 17.2007 3.53393 17.7082 4.40925L17.7094 4.41126C17.9747 4.86752 18.3635 5.16501 18.4927 5.26391L18.5143 5.28045C19.5794 6.09298 20.755 6.24299 21.8044 6.15401C22.2551 6.1158 22.6203 6.11074 23.0385 6.10495C23.3097 6.10119 23.6033 6.09712 23.9569 6.0835C24.6715 7.29164 25.3953 8.4929 26.1148 9.68612L25.7865 10.2044C25.4043 10.8081 25.03 11.3994 24.6432 11.9915Z" fill="#333333"/>
</svg>
