<svg width="24" height="28" viewBox="0 0 24 28" fill="none" xmlns="http://www.w3.org/2000/svg">
<path fill-rule="evenodd" clip-rule="evenodd" d="M11.9997 10C14.1137 10 15.8351 8.2811 15.8351 6.01808C15.8351 3.73911 14.0983 2 11.9997 2C9.79706 2 7.92494 3.84422 7.92494 6.01808C7.92494 8.17641 9.78121 10 11.9997 10ZM-0.000109146 25.8939C0.363812 20.4107 4.11978 14 11.9997 14C20.1198 14 23.6654 20.4441 23.9965 25.8939C24.0295 26.4622 23.8311 26.9972 23.4671 27.3983C23.1032 27.7659 22.607 28 22.0776 28H1.9188C1.3894 28 0.89321 27.7995 0.529283 27.3983C0.165356 26.9972 -0.0331096 26.4288 -0.000109146 25.8939ZM21.9993 26H1.99728C2.15965 23.6342 3.05569 21.1024 4.69709 19.1955C6.30212 17.3308 8.66547 16 11.9997 16C15.4657 16 17.8264 17.3477 19.3932 19.1964C21.0041 21.097 21.8522 23.6279 21.9993 26ZM11.9997 12C15.275 12 17.8351 9.32808 17.8351 6.01808C17.8351 2.70807 15.275 0 11.9997 0C8.72434 0 5.92494 2.70807 5.92494 6.01808C5.92494 9.32808 8.72434 12 11.9997 12Z" fill="#595959"/>
</svg>
