<svg width="21" height="28" viewBox="0 0 21 28" fill="none" xmlns="http://www.w3.org/2000/svg">
<path fill-rule="evenodd" clip-rule="evenodd" d="M2.33663 25.0191L10.3555 20.0722L18.3333 25.1864V2H2.33663V25.0191ZM19.2808 27.9998C19.0615 27.9982 18.848 27.9207 18.6704 27.7781L10.335 22.4348L1.86269 27.6615C1.75994 27.7374 1.64594 27.7927 1.5259 27.8248H1.43118C1.32998 27.8412 1.22716 27.8412 1.12597 27.8248H1.07334C0.970983 27.8061 0.871681 27.7707 0.778657 27.7198H0.715509C0.628271 27.6552 0.550229 27.5766 0.483969 27.4865C0.415478 27.3726 0.365602 27.2462 0.336625 27.1131V27.0198C0.332128 26.9577 0.332128 26.8952 0.336625 26.8331V1.16667C0.336625 0.857247 0.447509 0.560502 0.644883 0.341709C0.842256 0.122917 1.10995 0 1.38908 0H19.2808C19.5599 0 19.8276 0.122917 20.025 0.341709C20.2224 0.560502 20.3333 0.857247 20.3333 1.16667V26.8331C20.3232 26.8845 20.3101 26.935 20.294 26.9844C20.281 27.0242 20.266 27.0633 20.2491 27.1015V27.1948C20.2201 27.3279 20.1702 27.4542 20.1017 27.5681C20.0088 27.7038 19.8903 27.8153 19.7544 27.8948C19.6254 27.9601 19.4857 27.9958 19.3439 27.9998H19.2808Z" fill="#595959"/>
</svg>
