<svg width="48" height="48" viewBox="0 0 48 48" fill="none" xmlns="http://www.w3.org/2000/svg">
<path fill-rule="evenodd" clip-rule="evenodd" d="M34.1003 17.5545C34.1003 19.516 32.5102 21.1061 30.5487 21.1061C28.5872 21.1061 26.9971 19.516 26.9971 17.5545C26.9971 15.593 28.5872 14.0029 30.5487 14.0029C32.5102 14.0029 34.1003 15.593 34.1003 17.5545ZM12.2217 42.9143V36.7399H12.2235C15.0334 37.3124 22.4499 34.5258 25.1482 33.4512C29.8123 31.5917 37.6841 31.3774 37.6841 31.3774V42.9143H12.2217Z" fill="#FADA00"/>
<path fill-rule="evenodd" clip-rule="evenodd" d="M43.5049 4H6.59375V5.65609H43.5049V4ZM43.5049 44.3438H6.59375V45.9998H43.5049V44.3438ZM11.1048 9.76367H6.59375V11.4198H11.1048V9.76367ZM11.1048 15.5264H6.59375V17.1825H11.1048V15.5264ZM6.59375 21.29H11.1048V22.9461H6.59375V21.29ZM11.1048 27.0537H6.59375V28.7098H11.1048V27.0537ZM6.59375 32.8179H11.1048V34.474H6.59375V32.8179ZM11.1048 38.5801H6.59375V40.2362H11.1048V38.5801ZM38.9941 9.76367H43.5052V11.4198H38.9941V9.76367ZM43.5052 15.5264H38.9941V17.1825H43.5052V15.5264ZM38.9941 21.29H43.5052V22.9461H38.9941V21.29ZM43.5052 27.0537H38.9941V28.7098H43.5052V27.0537ZM38.9941 32.8179H43.5052V34.474H38.9941V32.8179ZM43.5052 38.5801H38.9941V40.2362H43.5052V38.5801Z" fill="#1D1D1B"/>
</svg>
