<svg width="42" height="37" viewBox="0 0 42 37" fill="none" xmlns="http://www.w3.org/2000/svg">
<path fill-rule="evenodd" clip-rule="evenodd" d="M40.4828 0.0384918C40.7164 -0.0371457 40.9725 -0.000167355 41.1733 0.139342C41.374 0.278851 41.4934 0.504083 41.4934 0.742761V32.7996C41.4934 33.119 41.2858 33.4014 40.9743 33.5039L32.9029 36.1596C32.825 36.1848 32.742 36.1999 32.6589 36.1999C32.5758 36.1999 32.4928 36.1882 32.4132 36.1613L24.5858 33.5846L16.7585 36.1613C16.6789 36.1865 16.5958 36.1999 16.5128 36.1999C16.4245 36.1999 16.338 36.1798 16.2532 36.1512V36.1546L8.9502 33.5862L1.13152 36.1596C1.05191 36.1848 0.968847 36.1983 0.88578 36.1983C0.726568 36.1983 0.570817 36.1512 0.439295 36.0588C0.238549 35.9192 0.119141 35.694 0.119141 35.4553V3.40016C0.119141 3.0808 0.326808 2.79842 0.638309 2.69589L8.71138 0.0384918V0.0418535C8.87405 -0.0119332 9.0523 -0.0152949 9.21671 0.0435343L16.5197 2.61185L24.3401 0.0384918V0.0418535C24.4976 -0.00857153 24.6689 -0.013614 24.8298 0.0384918L32.6554 2.61521L40.4828 0.0384918ZM9.7203 32.2769L15.7461 34.3964V3.92122L9.7203 1.80169V6.85427C9.40188 6.80889 9.07999 6.77695 8.74945 6.77695C8.56082 6.77695 8.37565 6.78872 8.19048 6.80385V1.77984L1.64896 3.93298V34.4199L8.19048 32.2668V19.5328C8.37392 19.5479 8.56082 19.5597 8.74945 19.5597C9.07999 19.5597 9.40361 19.5278 9.7203 19.4824V32.2769ZM17.2759 34.4183L23.8175 32.2651V1.77984L17.2759 3.93298V34.4183ZM25.3473 32.2651L31.8888 34.4183V3.93298L25.3473 1.77984V32.2651ZM33.4186 34.4183L39.9601 32.2651V1.77984L33.4186 3.93298V34.4183ZM14.4466 13.1674C14.4466 16.2224 11.8968 18.699 8.75136 18.699C5.60594 18.699 3.05607 16.2224 3.05607 13.1674C3.05607 10.1123 5.60594 7.63574 8.75136 7.63574C11.8968 7.63574 14.4466 10.1123 14.4466 13.1674Z" fill="black"/>
</svg>
