<svg width="15" height="12" viewBox="0 0 15 12" fill="none" xmlns="http://www.w3.org/2000/svg">
<path d="M8.92743 6.43614H1.30542C1.00083 6.43614 0.753906 6.18922 0.753906 5.88463C0.753906 5.58003 1.00083 5.33311 1.30542 5.33311H8.92742C9.1528 4.71252 9.74776 4.26923 10.4462 4.26923C11.1447 4.26923 11.7396 4.71252 11.965 5.33311H14.2024C14.507 5.33311 14.7539 5.58003 14.7539 5.88463C14.7539 6.18922 14.507 6.43614 14.2024 6.43614H11.965C11.7396 7.05672 11.1447 7.5 10.4462 7.5C9.74777 7.5 9.15281 7.05672 8.92743 6.43614Z" fill="black"/>
<path d="M6.58039 2.16691H14.2024C14.507 2.16691 14.7539 1.91999 14.7539 1.61539C14.7539 1.3108 14.507 1.06388 14.2024 1.06388H6.58039C6.35501 0.443287 5.76005 0 5.0616 0C4.36314 0 3.76818 0.443287 3.5428 1.06388H1.30542C1.00083 1.06388 0.753906 1.3108 0.753906 1.61539C0.753906 1.91999 1.00083 2.16691 1.30542 2.16691H3.54281C3.7682 2.78749 4.36315 3.23077 5.0616 3.23077C5.76005 3.23077 6.355 2.78749 6.58039 2.16691Z" fill="black"/>
<path d="M6.58039 10.9361H14.2024C14.507 10.9361 14.7539 10.6892 14.7539 10.3846C14.7539 10.08 14.507 9.83311 14.2024 9.83311H6.58039C6.35501 9.21252 5.76005 8.76923 5.0616 8.76923C4.36314 8.76923 3.76818 9.21252 3.5428 9.83311H1.30542C1.00083 9.83311 0.753906 10.08 0.753906 10.3846C0.753906 10.6892 1.00083 10.9361 1.30542 10.9361H3.54281C3.7682 11.5567 4.36315 12 5.0616 12C5.76005 12 6.355 11.5567 6.58039 10.9361Z" fill="black"/>
</svg>
