<svg width="20" height="28" viewBox="0 0 20 28" fill="none" xmlns="http://www.w3.org/2000/svg">
<path d="M0.00337326 26.8331C-0.00112442 26.8952 -0.00112442 26.9577 0.00337326 27.0198C0.00337326 27.0198 0.00337326 27.0781 0.00337326 27.1131C0.03235 27.2462 0.0822256 27.3726 0.150717 27.4865C0.216977 27.5766 0.295019 27.6552 0.382257 27.7198H0.445405C0.538429 27.7707 0.637731 27.8061 0.740092 27.8248H0.792715C0.893912 27.8412 0.99673 27.8412 1.09793 27.8248H1.19265C1.31269 27.7927 1.42669 27.7374 1.52943 27.6615L10.0018 22.4348L18.3371 27.7781C18.5148 27.9207 18.7282 27.9982 18.9475 27.9998H19.0107C19.1525 27.9958 19.2921 27.9601 19.4212 27.8948C19.557 27.8153 19.6756 27.7038 19.7685 27.5681C19.837 27.4542 19.8868 27.3279 19.9158 27.1948C19.9158 27.1948 19.9158 27.1948 19.9158 27.1015C19.9536 27.0162 19.9819 26.926 20 26.8331V1.16667C20 0.857247 19.8891 0.560502 19.6917 0.341709C19.4944 0.122917 19.2267 0 18.9475 0H1.05583C0.7767 0 0.509004 0.122917 0.311631 0.341709C0.114257 0.560502 0.00337326 0.857247 0.00337326 1.16667V26.8331Z" fill="#4D58CB"/>
</svg>
