<svg width="24" height="24" viewBox="0 0 24 24" fill="none" xmlns="http://www.w3.org/2000/svg">
<path fill-rule="evenodd" clip-rule="evenodd" d="M21.1278 11.0977C20.7034 6.75294 17.2472 3.29646 12.9023 2.87232V0.890104C12.9023 -0.296701 11.0976 -0.296701 11.0976 0.890104V2.87232C6.7529 3.29646 3.29644 6.75294 2.872 11.0977H0.890099C-0.2967 11.0977 -0.2967 12.9023 0.890099 12.9023H2.8723C3.29644 17.2471 6.7529 20.7035 11.0976 21.128V23.1099C11.0976 24.2967 12.9023 24.2967 12.9023 23.1099V21.1277C17.2472 20.7035 20.7034 17.2471 21.1278 12.9023H23.1104C24.2965 12.9023 24.2965 11.0977 23.1104 11.0977H21.1278ZM18.1655 11.9789C18.1655 8.56229 15.3954 5.7922 11.9788 5.7922C8.56218 5.7922 5.79211 8.56229 5.79211 11.9789C5.79211 15.3956 8.56218 18.1657 11.9788 18.1657C15.3954 18.1657 18.1655 15.3956 18.1655 11.9789ZM11.9985 7.16561C9.32945 7.16561 7.16553 9.32954 7.16553 11.9991C7.16553 14.6681 9.32945 16.8326 11.9985 16.8326C14.668 16.8326 16.8319 14.6686 16.8319 11.9991C16.8319 9.32954 14.668 7.16561 11.9985 7.16561ZM4.17993 11.998C4.17993 7.67968 7.68025 4.17994 11.9979 4.17994C16.3162 4.17994 19.8165 7.67968 19.8165 11.998C19.8165 16.3162 16.3162 19.816 11.9979 19.816C7.68025 19.816 4.17993 16.3162 4.17993 11.998Z" fill="black"/>
</svg>
