<svg width="20" height="28" viewBox="0 0 20 28" fill="none" xmlns="http://www.w3.org/2000/svg">
<path fill-rule="evenodd" clip-rule="evenodd" d="M2.00337 25.0191L10.0222 20.0722L18 25.1864V2H2.00337V25.0191ZM18.9475 27.9998C18.7282 27.9982 18.5148 27.9207 18.3371 27.7781L10.0018 22.4348L1.52943 27.6615C1.42669 27.7374 1.31269 27.7927 1.19265 27.8248H1.09793C0.99673 27.8412 0.893912 27.8412 0.792715 27.8248H0.740092C0.637731 27.8061 0.538429 27.7707 0.445405 27.7198H0.382257C0.295019 27.6552 0.216977 27.5766 0.150717 27.4865C0.0822256 27.3726 0.03235 27.2462 0.00337326 27.1131V27.0198C-0.00112442 26.9577 -0.00112442 26.8952 0.00337326 26.8331V1.16667C0.00337326 0.857247 0.114257 0.560502 0.311631 0.341709C0.509004 0.122917 0.7767 0 1.05583 0H18.9475C19.2267 0 19.4944 0.122917 19.6917 0.341709C19.8891 0.560502 20 0.857247 20 1.16667V26.8331C19.99 26.8845 19.9769 26.935 19.9607 26.9844C19.9477 27.0242 19.9327 27.0633 19.9158 27.1015V27.1948C19.8868 27.3279 19.837 27.4542 19.7685 27.5681C19.6756 27.7038 19.557 27.8153 19.4212 27.8948C19.2921 27.9601 19.1525 27.9958 19.0107 27.9998H18.9475Z" fill="black"/>
</svg>
