<svg width="14" height="13" viewBox="0 0 14 13" fill="none" xmlns="http://www.w3.org/2000/svg">
<path d="M11.4 5.99154C11.2276 5.99154 11.0623 6.06003 10.9404 6.18193C10.8185 6.30382 10.75 6.46915 10.75 6.64154V10.3085C10.75 10.4809 10.6815 10.6463 10.5596 10.7682C10.4377 10.8901 10.2724 10.9585 10.1 10.9585H1.95C1.77761 10.9585 1.61228 10.8901 1.49038 10.7682C1.36848 10.6463 1.3 10.4809 1.3 10.3085V4.15854C1.3 3.98615 1.36848 3.82082 1.49038 3.69893C1.61228 3.57703 1.77761 3.50854 1.95 3.50854H7.617C7.78939 3.50854 7.95472 3.44006 8.07662 3.31816C8.19852 3.19627 8.267 3.03094 8.267 2.85854C8.267 2.68615 8.19852 2.52082 8.07662 2.39893C7.95472 2.27703 7.78939 2.20854 7.617 2.20854H1.95C1.43283 2.20854 0.936838 2.41399 0.571142 2.77969C0.205446 3.14538 0 3.64137 0 4.15854V10.3085C0 10.8257 0.205446 11.3217 0.571142 11.6874C0.936838 12.0531 1.43283 12.2585 1.95 12.2585H10.1C10.6172 12.2585 11.1132 12.0531 11.4789 11.6874C11.8446 11.3217 12.05 10.8257 12.05 10.3085V6.64154C12.05 6.46915 11.9815 6.30382 11.8596 6.18193C11.7377 6.06003 11.5724 5.99154 11.4 5.99154ZM13.948 0.661545C13.882 0.502718 13.7558 0.376504 13.597 0.310545C13.5189 0.277238 13.4349 0.259572 13.35 0.258545H9.45C9.27761 0.258545 9.11228 0.327027 8.99038 0.448925C8.86848 0.570824 8.8 0.736154 8.8 0.908545C8.8 1.08094 8.86848 1.24627 8.99038 1.36816C9.11228 1.49006 9.27761 1.55854 9.45 1.55854H11.7835L5.0885 8.24704C5.02758 8.30747 4.97922 8.37936 4.94622 8.45857C4.91322 8.53778 4.89623 8.62274 4.89623 8.70854C4.89623 8.79435 4.91322 8.87931 4.94622 8.95852C4.97922 9.03773 5.02758 9.10962 5.0885 9.17004C5.14893 9.23097 5.22082 9.27932 5.30002 9.31232C5.37923 9.34532 5.46419 9.36231 5.55 9.36231C5.63581 9.36231 5.72077 9.34532 5.79997 9.31232C5.87918 9.27932 5.95107 9.23097 6.0115 9.17004L12.7 2.47504V4.80854C12.7 4.98094 12.7685 5.14627 12.8904 5.26816C13.0123 5.39006 13.1776 5.45854 13.35 5.45854C13.5224 5.45854 13.6877 5.39006 13.8096 5.26816C13.9315 5.14627 14 4.98094 14 4.80854V0.908545C13.999 0.823605 13.9813 0.739689 13.948 0.661545Z" fill="black"/>
</svg>
