<svg width="16" height="16" viewBox="0 0 16 16" fill="none" xmlns="http://www.w3.org/2000/svg">
<path fill-rule="evenodd" clip-rule="evenodd" d="M5.61479 4.96054C5.54393 5.10789 5.40549 5.21128 5.24408 5.2374L0.936255 5.93463C0.539234 5.99888 0.376698 6.48177 0.654057 6.77302L3.7868 10.0626C3.89451 10.1757 3.94318 10.3327 3.91838 10.4869L3.19214 15.0021C3.12637 15.411 3.5578 15.718 3.92258 15.5219L7.76257 13.4572C7.91079 13.3775 8.08916 13.3777 8.23719 13.4577L12.0477 15.5183C12.4125 15.7156 12.845 15.4085 12.7792 14.9991L12.0536 10.4879C12.0287 10.3331 12.0779 10.1756 12.1864 10.0625L15.3406 6.77365C15.6196 6.4828 15.4575 5.99836 15.0596 5.93398L10.7557 5.23741C10.5943 5.21128 10.4559 5.10788 10.385 4.96052L8.45061 0.937974C8.26896 0.560236 7.73107 0.560223 7.54941 0.937953L5.61479 4.96054Z" fill="#FADA00"/>
</svg>
