<svg width="10" height="12" viewBox="0 0 10 12" fill="none" xmlns="http://www.w3.org/2000/svg">
<path d="M2 1.125C2 0.917893 2.16789 0.75 2.375 0.75H7.625C7.83211 0.75 8 0.917893 8 1.125C8 1.33211 7.83211 1.5 7.625 1.5H2.375C2.16789 1.5 2 1.33211 2 1.125Z" fill="white"/>
<path d="M1.625 2.25C1.41789 2.25 1.25 2.41789 1.25 2.625C1.25 2.83211 1.41789 3 1.625 3H8.375C8.58211 3 8.75 2.83211 8.75 2.625C8.75 2.41789 8.58211 2.25 8.375 2.25H1.625Z" fill="white"/>
<path fill-rule="evenodd" clip-rule="evenodd" d="M1.25 3.75C0.835786 3.75 0.5 4.08579 0.5 4.5V10.5C0.5 10.9142 0.835787 11.25 1.25 11.25H8.75C9.16421 11.25 9.5 10.9142 9.5 10.5V4.5C9.5 4.08579 9.16421 3.75 8.75 3.75H1.25ZM4.64403 9.74987C4.64702 9.75 4.65001 9.75 4.65289 9.75C4.74178 9.75 4.82757 9.71121 4.89193 9.64143L7.89363 5.92246C8.03134 5.77314 8.03595 5.52594 7.90388 5.37025C7.77192 5.21443 7.55303 5.20949 7.41555 5.35867L4.66544 8.8048L2.59698 6.83537C2.46618 6.67838 2.24752 6.67096 2.10865 6.81871C1.96979 6.96659 1.96311 7.21379 2.09392 7.37079L4.40142 9.62712C4.46451 9.70301 4.55191 9.74714 4.64403 9.74987Z" fill="white"/>
</svg>
