<svg width="46" height="46" viewBox="0 0 46 46" fill="none" xmlns="http://www.w3.org/2000/svg">
<circle cx="23" cy="23" r="23" fill="url(#paint0_linear_612_9606)"/>
<path fill-rule="evenodd" clip-rule="evenodd" d="M32.1278 22.0977C31.7034 17.7529 28.2472 14.2965 23.9023 13.8723V11.8901C23.9023 10.7033 22.0976 10.7033 22.0976 11.8901V13.8723C17.7529 14.2965 14.2964 17.7529 13.872 22.0977H11.8901C10.7033 22.0977 10.7033 23.9023 11.8901 23.9023H13.8723C14.2964 28.2471 17.7529 31.7035 22.0976 32.128V34.1099C22.0976 35.2967 23.9023 35.2967 23.9023 34.1099V32.1277C28.2472 31.7035 31.7034 28.2471 32.1278 23.9023H34.1104C35.2965 23.9023 35.2965 22.0977 34.1104 22.0977H32.1278ZM29.1655 22.9789C29.1655 19.5623 26.3954 16.7922 22.9788 16.7922C19.5622 16.7922 16.7921 19.5623 16.7921 22.9789C16.7921 26.3956 19.5622 29.1657 22.9788 29.1657C26.3954 29.1657 29.1655 26.3956 29.1655 22.9789ZM22.9985 18.1656C20.3294 18.1656 18.1655 20.3295 18.1655 22.9991C18.1655 25.6681 20.3294 27.8326 22.9985 27.8326C25.668 27.8326 27.8319 25.6686 27.8319 22.9991C27.8319 20.3295 25.668 18.1656 22.9985 18.1656ZM15.1799 22.998C15.1799 18.6797 18.6803 15.1799 22.9979 15.1799C27.3162 15.1799 30.8165 18.6797 30.8165 22.998C30.8165 27.3162 27.3162 30.816 22.9979 30.816C18.6803 30.816 15.1799 27.3162 15.1799 22.998Z" fill="white"/>
<defs>
<linearGradient id="paint0_linear_612_9606" x1="23" y1="0" x2="23" y2="46" gradientUnits="userSpaceOnUse">
<stop stop-color="#FFDE7B"/>
<stop offset="0.96875" stop-color="#EBB000"/>
</linearGradient>
</defs>
</svg>
